<?xml version="1.0" encoding="utf-8" standalone="no"?>
<!DOCTYPE svg PUBLIC "-//W3C//DTD SVG 1.1//EN"
  "http://www.w3.org/Graphics/SVG/1.1/DTD/svg11.dtd">
<svg xmlns:xlink="http://www.w3.org/1999/xlink" width="460.8pt" height="345.6pt" viewBox="0 0 460.8 345.6" xmlns="http://www.w3.org/2000/svg" version="1.1">
 <metadata>
  <rdf:RDF xmlns:dc="http://purl.org/dc/elements/1.1/" xmlns:cc="http://creativecommons.org/ns#" xmlns:rdf="http://www.w3.org/1999/02/22-rdf-syntax-ns#">
   <cc:Work>
    <dc:type rdf:resource="http://purl.org/dc/dcmitype/StillImage"/>
    <dc:date>2024-03-05T02:38:28.997812</dc:date>
    <dc:format>image/svg+xml</dc:format>
    <dc:creator>
     <cc:Agent>
      <dc:title>Matplotlib v3.8.0, https://matplotlib.org/</dc:title>
     </cc:Agent>
    </dc:creator>
   </cc:Work>
  </rdf:RDF>
 </metadata>
 <defs>
  <style type="text/css">*{stroke-linejoin: round; stroke-linecap: butt}</style>
 </defs>
 <g id="figure_1">
  <g id="patch_1">
   <path d="M 0 345.6 
L 460.8 345.6 
L 460.8 0 
L 0 0 
z
" style="fill: #ffffff"/>
  </g>
  <g id="axes_1">
   <g id="patch_2">
    <path d="M 57.6 307.584 
L 414.72 307.584 
L 414.72 41.472 
L 57.6 41.472 
z
" style="fill: #ffffff"/>
   </g>
   <g id="matplotlib.axis_1">
    <g id="xtick_1">
     <g id="line2d_1">
      <defs>
       <path id="ma195f89882" d="M 0 0 
L 0 3.5 
" style="stroke: #000000; stroke-width: 0.8"/>
      </defs>
      <g>
       <use xlink:href="#ma195f89882" x="73.832727" y="307.584" style="stroke: #000000; stroke-width: 0.8"/>
      </g>
     </g>
     <g id="text_1">
      <!-- 0 -->
      <g transform="translate(70.651477 322.182437) scale(0.1 -0.1)">
       <defs>
        <path id="DejaVuSans-30" d="M 2034 4250 
Q 1547 4250 1301 3770 
Q 1056 3291 1056 2328 
Q 1056 1369 1301 889 
Q 1547 409 2034 409 
Q 2525 409 2770 889 
Q 3016 1369 3016 2328 
Q 3016 3291 2770 3770 
Q 2525 4250 2034 4250 
z
M 2034 4750 
Q 2819 4750 3233 4129 
Q 3647 3509 3647 2328 
Q 3647 1150 3233 529 
Q 2819 -91 2034 -91 
Q 1250 -91 836 529 
Q 422 1150 422 2328 
Q 422 3509 836 4129 
Q 1250 4750 2034 4750 
z
" transform="scale(0.015625)"/>
       </defs>
       <use xlink:href="#DejaVuSans-30"/>
      </g>
     </g>
    </g>
    <g id="xtick_2">
     <g id="line2d_2">
      <g>
       <use xlink:href="#ma195f89882" x="114.516254" y="307.584" style="stroke: #000000; stroke-width: 0.8"/>
      </g>
     </g>
     <g id="text_2">
      <!-- 50 -->
      <g transform="translate(108.153754 322.182437) scale(0.1 -0.1)">
       <defs>
        <path id="DejaVuSans-35" d="M 691 4666 
L 3169 4666 
L 3169 4134 
L 1269 4134 
L 1269 2991 
Q 1406 3038 1543 3061 
Q 1681 3084 1819 3084 
Q 2600 3084 3056 2656 
Q 3513 2228 3513 1497 
Q 3513 744 3044 326 
Q 2575 -91 1722 -91 
Q 1428 -91 1123 -41 
Q 819 9 494 109 
L 494 744 
Q 775 591 1075 516 
Q 1375 441 1709 441 
Q 2250 441 2565 725 
Q 2881 1009 2881 1497 
Q 2881 1984 2565 2268 
Q 2250 2553 1709 2553 
Q 1456 2553 1204 2497 
Q 953 2441 691 2322 
L 691 4666 
z
" transform="scale(0.015625)"/>
       </defs>
       <use xlink:href="#DejaVuSans-35"/>
       <use xlink:href="#DejaVuSans-30" x="63.623047"/>
      </g>
     </g>
    </g>
    <g id="xtick_3">
     <g id="line2d_3">
      <g>
       <use xlink:href="#ma195f89882" x="155.199781" y="307.584" style="stroke: #000000; stroke-width: 0.8"/>
      </g>
     </g>
     <g id="text_3">
      <!-- 100 -->
      <g transform="translate(145.656031 322.182437) scale(0.1 -0.1)">
       <defs>
        <path id="DejaVuSans-31" d="M 794 531 
L 1825 531 
L 1825 4091 
L 703 3866 
L 703 4441 
L 1819 4666 
L 2450 4666 
L 2450 531 
L 3481 531 
L 3481 0 
L 794 0 
L 794 531 
z
" transform="scale(0.015625)"/>
       </defs>
       <use xlink:href="#DejaVuSans-31"/>
       <use xlink:href="#DejaVuSans-30" x="63.623047"/>
       <use xlink:href="#DejaVuSans-30" x="127.246094"/>
      </g>
     </g>
    </g>
    <g id="xtick_4">
     <g id="line2d_4">
      <g>
       <use xlink:href="#ma195f89882" x="195.883308" y="307.584" style="stroke: #000000; stroke-width: 0.8"/>
      </g>
     </g>
     <g id="text_4">
      <!-- 150 -->
      <g transform="translate(186.339558 322.182437) scale(0.1 -0.1)">
       <use xlink:href="#DejaVuSans-31"/>
       <use xlink:href="#DejaVuSans-35" x="63.623047"/>
       <use xlink:href="#DejaVuSans-30" x="127.246094"/>
      </g>
     </g>
    </g>
    <g id="xtick_5">
     <g id="line2d_5">
      <g>
       <use xlink:href="#ma195f89882" x="236.566835" y="307.584" style="stroke: #000000; stroke-width: 0.8"/>
      </g>
     </g>
     <g id="text_5">
      <!-- 200 -->
      <g transform="translate(227.023085 322.182437) scale(0.1 -0.1)">
       <defs>
        <path id="DejaVuSans-32" d="M 1228 531 
L 3431 531 
L 3431 0 
L 469 0 
L 469 531 
Q 828 903 1448 1529 
Q 2069 2156 2228 2338 
Q 2531 2678 2651 2914 
Q 2772 3150 2772 3378 
Q 2772 3750 2511 3984 
Q 2250 4219 1831 4219 
Q 1534 4219 1204 4116 
Q 875 4013 500 3803 
L 500 4441 
Q 881 4594 1212 4672 
Q 1544 4750 1819 4750 
Q 2544 4750 2975 4387 
Q 3406 4025 3406 3419 
Q 3406 3131 3298 2873 
Q 3191 2616 2906 2266 
Q 2828 2175 2409 1742 
Q 1991 1309 1228 531 
z
" transform="scale(0.015625)"/>
       </defs>
       <use xlink:href="#DejaVuSans-32"/>
       <use xlink:href="#DejaVuSans-30" x="63.623047"/>
       <use xlink:href="#DejaVuSans-30" x="127.246094"/>
      </g>
     </g>
    </g>
    <g id="xtick_6">
     <g id="line2d_6">
      <g>
       <use xlink:href="#ma195f89882" x="277.250362" y="307.584" style="stroke: #000000; stroke-width: 0.8"/>
      </g>
     </g>
     <g id="text_6">
      <!-- 250 -->
      <g transform="translate(267.706612 322.182437) scale(0.1 -0.1)">
       <use xlink:href="#DejaVuSans-32"/>
       <use xlink:href="#DejaVuSans-35" x="63.623047"/>
       <use xlink:href="#DejaVuSans-30" x="127.246094"/>
      </g>
     </g>
    </g>
    <g id="xtick_7">
     <g id="line2d_7">
      <g>
       <use xlink:href="#ma195f89882" x="317.933889" y="307.584" style="stroke: #000000; stroke-width: 0.8"/>
      </g>
     </g>
     <g id="text_7">
      <!-- 300 -->
      <g transform="translate(308.390139 322.182437) scale(0.1 -0.1)">
       <defs>
        <path id="DejaVuSans-33" d="M 2597 2516 
Q 3050 2419 3304 2112 
Q 3559 1806 3559 1356 
Q 3559 666 3084 287 
Q 2609 -91 1734 -91 
Q 1441 -91 1130 -33 
Q 819 25 488 141 
L 488 750 
Q 750 597 1062 519 
Q 1375 441 1716 441 
Q 2309 441 2620 675 
Q 2931 909 2931 1356 
Q 2931 1769 2642 2001 
Q 2353 2234 1838 2234 
L 1294 2234 
L 1294 2753 
L 1863 2753 
Q 2328 2753 2575 2939 
Q 2822 3125 2822 3475 
Q 2822 3834 2567 4026 
Q 2313 4219 1838 4219 
Q 1578 4219 1281 4162 
Q 984 4106 628 3988 
L 628 4550 
Q 988 4650 1302 4700 
Q 1616 4750 1894 4750 
Q 2613 4750 3031 4423 
Q 3450 4097 3450 3541 
Q 3450 3153 3228 2886 
Q 3006 2619 2597 2516 
z
" transform="scale(0.015625)"/>
       </defs>
       <use xlink:href="#DejaVuSans-33"/>
       <use xlink:href="#DejaVuSans-30" x="63.623047"/>
       <use xlink:href="#DejaVuSans-30" x="127.246094"/>
      </g>
     </g>
    </g>
    <g id="xtick_8">
     <g id="line2d_8">
      <g>
       <use xlink:href="#ma195f89882" x="358.617416" y="307.584" style="stroke: #000000; stroke-width: 0.8"/>
      </g>
     </g>
     <g id="text_8">
      <!-- 350 -->
      <g transform="translate(349.073666 322.182437) scale(0.1 -0.1)">
       <use xlink:href="#DejaVuSans-33"/>
       <use xlink:href="#DejaVuSans-35" x="63.623047"/>
       <use xlink:href="#DejaVuSans-30" x="127.246094"/>
      </g>
     </g>
    </g>
    <g id="xtick_9">
     <g id="line2d_9">
      <g>
       <use xlink:href="#ma195f89882" x="399.300943" y="307.584" style="stroke: #000000; stroke-width: 0.8"/>
      </g>
     </g>
     <g id="text_9">
      <!-- 400 -->
      <g transform="translate(389.757193 322.182437) scale(0.1 -0.1)">
       <defs>
        <path id="DejaVuSans-34" d="M 2419 4116 
L 825 1625 
L 2419 1625 
L 2419 4116 
z
M 2253 4666 
L 3047 4666 
L 3047 1625 
L 3713 1625 
L 3713 1100 
L 3047 1100 
L 3047 0 
L 2419 0 
L 2419 1100 
L 313 1100 
L 313 1709 
L 2253 4666 
z
" transform="scale(0.015625)"/>
       </defs>
       <use xlink:href="#DejaVuSans-34"/>
       <use xlink:href="#DejaVuSans-30" x="63.623047"/>
       <use xlink:href="#DejaVuSans-30" x="127.246094"/>
      </g>
     </g>
    </g>
    <g id="text_10">
     <!-- Epoch -->
     <g transform="translate(220.849063 335.860562) scale(0.1 -0.1)">
      <defs>
       <path id="DejaVuSans-45" d="M 628 4666 
L 3578 4666 
L 3578 4134 
L 1259 4134 
L 1259 2753 
L 3481 2753 
L 3481 2222 
L 1259 2222 
L 1259 531 
L 3634 531 
L 3634 0 
L 628 0 
L 628 4666 
z
" transform="scale(0.015625)"/>
       <path id="DejaVuSans-70" d="M 1159 525 
L 1159 -1331 
L 581 -1331 
L 581 3500 
L 1159 3500 
L 1159 2969 
Q 1341 3281 1617 3432 
Q 1894 3584 2278 3584 
Q 2916 3584 3314 3078 
Q 3713 2572 3713 1747 
Q 3713 922 3314 415 
Q 2916 -91 2278 -91 
Q 1894 -91 1617 61 
Q 1341 213 1159 525 
z
M 3116 1747 
Q 3116 2381 2855 2742 
Q 2594 3103 2138 3103 
Q 1681 3103 1420 2742 
Q 1159 2381 1159 1747 
Q 1159 1113 1420 752 
Q 1681 391 2138 391 
Q 2594 391 2855 752 
Q 3116 1113 3116 1747 
z
" transform="scale(0.015625)"/>
       <path id="DejaVuSans-6f" d="M 1959 3097 
Q 1497 3097 1228 2736 
Q 959 2375 959 1747 
Q 959 1119 1226 758 
Q 1494 397 1959 397 
Q 2419 397 2687 759 
Q 2956 1122 2956 1747 
Q 2956 2369 2687 2733 
Q 2419 3097 1959 3097 
z
M 1959 3584 
Q 2709 3584 3137 3096 
Q 3566 2609 3566 1747 
Q 3566 888 3137 398 
Q 2709 -91 1959 -91 
Q 1206 -91 779 398 
Q 353 888 353 1747 
Q 353 2609 779 3096 
Q 1206 3584 1959 3584 
z
" transform="scale(0.015625)"/>
       <path id="DejaVuSans-63" d="M 3122 3366 
L 3122 2828 
Q 2878 2963 2633 3030 
Q 2388 3097 2138 3097 
Q 1578 3097 1268 2742 
Q 959 2388 959 1747 
Q 959 1106 1268 751 
Q 1578 397 2138 397 
Q 2388 397 2633 464 
Q 2878 531 3122 666 
L 3122 134 
Q 2881 22 2623 -34 
Q 2366 -91 2075 -91 
Q 1284 -91 818 406 
Q 353 903 353 1747 
Q 353 2603 823 3093 
Q 1294 3584 2113 3584 
Q 2378 3584 2631 3529 
Q 2884 3475 3122 3366 
z
" transform="scale(0.015625)"/>
       <path id="DejaVuSans-68" d="M 3513 2113 
L 3513 0 
L 2938 0 
L 2938 2094 
Q 2938 2591 2744 2837 
Q 2550 3084 2163 3084 
Q 1697 3084 1428 2787 
Q 1159 2491 1159 1978 
L 1159 0 
L 581 0 
L 581 4863 
L 1159 4863 
L 1159 2956 
Q 1366 3272 1645 3428 
Q 1925 3584 2291 3584 
Q 2894 3584 3203 3211 
Q 3513 2838 3513 2113 
z
" transform="scale(0.015625)"/>
      </defs>
      <use xlink:href="#DejaVuSans-45"/>
      <use xlink:href="#DejaVuSans-70" x="63.183594"/>
      <use xlink:href="#DejaVuSans-6f" x="126.660156"/>
      <use xlink:href="#DejaVuSans-63" x="187.841797"/>
      <use xlink:href="#DejaVuSans-68" x="242.822266"/>
     </g>
    </g>
   </g>
   <g id="matplotlib.axis_2">
    <g id="ytick_1">
     <g id="line2d_10">
      <defs>
       <path id="m358684bf44" d="M 0 0 
L -3.5 0 
" style="stroke: #000000; stroke-width: 0.8"/>
      </defs>
      <g>
       <use xlink:href="#m358684bf44" x="57.6" y="274.19467" style="stroke: #000000; stroke-width: 0.8"/>
      </g>
     </g>
     <g id="text_11">
      <!-- 0.40 -->
      <g transform="translate(28.334375 277.993888) scale(0.1 -0.1)">
       <defs>
        <path id="DejaVuSans-2e" d="M 684 794 
L 1344 794 
L 1344 0 
L 684 0 
L 684 794 
z
" transform="scale(0.015625)"/>
       </defs>
       <use xlink:href="#DejaVuSans-30"/>
       <use xlink:href="#DejaVuSans-2e" x="63.623047"/>
       <use xlink:href="#DejaVuSans-34" x="95.410156"/>
       <use xlink:href="#DejaVuSans-30" x="159.033203"/>
      </g>
     </g>
    </g>
    <g id="ytick_2">
     <g id="line2d_11">
      <g>
       <use xlink:href="#m358684bf44" x="57.6" y="237.775863" style="stroke: #000000; stroke-width: 0.8"/>
      </g>
     </g>
     <g id="text_12">
      <!-- 0.45 -->
      <g transform="translate(28.334375 241.575082) scale(0.1 -0.1)">
       <use xlink:href="#DejaVuSans-30"/>
       <use xlink:href="#DejaVuSans-2e" x="63.623047"/>
       <use xlink:href="#DejaVuSans-34" x="95.410156"/>
       <use xlink:href="#DejaVuSans-35" x="159.033203"/>
      </g>
     </g>
    </g>
    <g id="ytick_3">
     <g id="line2d_12">
      <g>
       <use xlink:href="#m358684bf44" x="57.6" y="201.357057" style="stroke: #000000; stroke-width: 0.8"/>
      </g>
     </g>
     <g id="text_13">
      <!-- 0.50 -->
      <g transform="translate(28.334375 205.156276) scale(0.1 -0.1)">
       <use xlink:href="#DejaVuSans-30"/>
       <use xlink:href="#DejaVuSans-2e" x="63.623047"/>
       <use xlink:href="#DejaVuSans-35" x="95.410156"/>
       <use xlink:href="#DejaVuSans-30" x="159.033203"/>
      </g>
     </g>
    </g>
    <g id="ytick_4">
     <g id="line2d_13">
      <g>
       <use xlink:href="#m358684bf44" x="57.6" y="164.938251" style="stroke: #000000; stroke-width: 0.8"/>
      </g>
     </g>
     <g id="text_14">
      <!-- 0.55 -->
      <g transform="translate(28.334375 168.737469) scale(0.1 -0.1)">
       <use xlink:href="#DejaVuSans-30"/>
       <use xlink:href="#DejaVuSans-2e" x="63.623047"/>
       <use xlink:href="#DejaVuSans-35" x="95.410156"/>
       <use xlink:href="#DejaVuSans-35" x="159.033203"/>
      </g>
     </g>
    </g>
    <g id="ytick_5">
     <g id="line2d_14">
      <g>
       <use xlink:href="#m358684bf44" x="57.6" y="128.519444" style="stroke: #000000; stroke-width: 0.8"/>
      </g>
     </g>
     <g id="text_15">
      <!-- 0.60 -->
      <g transform="translate(28.334375 132.318663) scale(0.1 -0.1)">
       <defs>
        <path id="DejaVuSans-36" d="M 2113 2584 
Q 1688 2584 1439 2293 
Q 1191 2003 1191 1497 
Q 1191 994 1439 701 
Q 1688 409 2113 409 
Q 2538 409 2786 701 
Q 3034 994 3034 1497 
Q 3034 2003 2786 2293 
Q 2538 2584 2113 2584 
z
M 3366 4563 
L 3366 3988 
Q 3128 4100 2886 4159 
Q 2644 4219 2406 4219 
Q 1781 4219 1451 3797 
Q 1122 3375 1075 2522 
Q 1259 2794 1537 2939 
Q 1816 3084 2150 3084 
Q 2853 3084 3261 2657 
Q 3669 2231 3669 1497 
Q 3669 778 3244 343 
Q 2819 -91 2113 -91 
Q 1303 -91 875 529 
Q 447 1150 447 2328 
Q 447 3434 972 4092 
Q 1497 4750 2381 4750 
Q 2619 4750 2861 4703 
Q 3103 4656 3366 4563 
z
" transform="scale(0.015625)"/>
       </defs>
       <use xlink:href="#DejaVuSans-30"/>
       <use xlink:href="#DejaVuSans-2e" x="63.623047"/>
       <use xlink:href="#DejaVuSans-36" x="95.410156"/>
       <use xlink:href="#DejaVuSans-30" x="159.033203"/>
      </g>
     </g>
    </g>
    <g id="ytick_6">
     <g id="line2d_15">
      <g>
       <use xlink:href="#m358684bf44" x="57.6" y="92.100638" style="stroke: #000000; stroke-width: 0.8"/>
      </g>
     </g>
     <g id="text_16">
      <!-- 0.65 -->
      <g transform="translate(28.334375 95.899857) scale(0.1 -0.1)">
       <use xlink:href="#DejaVuSans-30"/>
       <use xlink:href="#DejaVuSans-2e" x="63.623047"/>
       <use xlink:href="#DejaVuSans-36" x="95.410156"/>
       <use xlink:href="#DejaVuSans-35" x="159.033203"/>
      </g>
     </g>
    </g>
    <g id="ytick_7">
     <g id="line2d_16">
      <g>
       <use xlink:href="#m358684bf44" x="57.6" y="55.681831" style="stroke: #000000; stroke-width: 0.8"/>
      </g>
     </g>
     <g id="text_17">
      <!-- 0.70 -->
      <g transform="translate(28.334375 59.48105) scale(0.1 -0.1)">
       <defs>
        <path id="DejaVuSans-37" d="M 525 4666 
L 3525 4666 
L 3525 4397 
L 1831 0 
L 1172 0 
L 2766 4134 
L 525 4134 
L 525 4666 
z
" transform="scale(0.015625)"/>
       </defs>
       <use xlink:href="#DejaVuSans-30"/>
       <use xlink:href="#DejaVuSans-2e" x="63.623047"/>
       <use xlink:href="#DejaVuSans-37" x="95.410156"/>
       <use xlink:href="#DejaVuSans-30" x="159.033203"/>
      </g>
     </g>
    </g>
    <g id="text_18">
     <!-- Accuracy -->
     <g transform="translate(22.254687 197.356125) rotate(-90) scale(0.1 -0.1)">
      <defs>
       <path id="DejaVuSans-41" d="M 2188 4044 
L 1331 1722 
L 3047 1722 
L 2188 4044 
z
M 1831 4666 
L 2547 4666 
L 4325 0 
L 3669 0 
L 3244 1197 
L 1141 1197 
L 716 0 
L 50 0 
L 1831 4666 
z
" transform="scale(0.015625)"/>
       <path id="DejaVuSans-75" d="M 544 1381 
L 544 3500 
L 1119 3500 
L 1119 1403 
Q 1119 906 1312 657 
Q 1506 409 1894 409 
Q 2359 409 2629 706 
Q 2900 1003 2900 1516 
L 2900 3500 
L 3475 3500 
L 3475 0 
L 2900 0 
L 2900 538 
Q 2691 219 2414 64 
Q 2138 -91 1772 -91 
Q 1169 -91 856 284 
Q 544 659 544 1381 
z
M 1991 3584 
L 1991 3584 
z
" transform="scale(0.015625)"/>
       <path id="DejaVuSans-72" d="M 2631 2963 
Q 2534 3019 2420 3045 
Q 2306 3072 2169 3072 
Q 1681 3072 1420 2755 
Q 1159 2438 1159 1844 
L 1159 0 
L 581 0 
L 581 3500 
L 1159 3500 
L 1159 2956 
Q 1341 3275 1631 3429 
Q 1922 3584 2338 3584 
Q 2397 3584 2469 3576 
Q 2541 3569 2628 3553 
L 2631 2963 
z
" transform="scale(0.015625)"/>
       <path id="DejaVuSans-61" d="M 2194 1759 
Q 1497 1759 1228 1600 
Q 959 1441 959 1056 
Q 959 750 1161 570 
Q 1363 391 1709 391 
Q 2188 391 2477 730 
Q 2766 1069 2766 1631 
L 2766 1759 
L 2194 1759 
z
M 3341 1997 
L 3341 0 
L 2766 0 
L 2766 531 
Q 2569 213 2275 61 
Q 1981 -91 1556 -91 
Q 1019 -91 701 211 
Q 384 513 384 1019 
Q 384 1609 779 1909 
Q 1175 2209 1959 2209 
L 2766 2209 
L 2766 2266 
Q 2766 2663 2505 2880 
Q 2244 3097 1772 3097 
Q 1472 3097 1187 3025 
Q 903 2953 641 2809 
L 641 3341 
Q 956 3463 1253 3523 
Q 1550 3584 1831 3584 
Q 2591 3584 2966 3190 
Q 3341 2797 3341 1997 
z
" transform="scale(0.015625)"/>
       <path id="DejaVuSans-79" d="M 2059 -325 
Q 1816 -950 1584 -1140 
Q 1353 -1331 966 -1331 
L 506 -1331 
L 506 -850 
L 844 -850 
Q 1081 -850 1212 -737 
Q 1344 -625 1503 -206 
L 1606 56 
L 191 3500 
L 800 3500 
L 1894 763 
L 2988 3500 
L 3597 3500 
L 2059 -325 
z
" transform="scale(0.015625)"/>
      </defs>
      <use xlink:href="#DejaVuSans-41"/>
      <use xlink:href="#DejaVuSans-63" x="66.658203"/>
      <use xlink:href="#DejaVuSans-63" x="121.638672"/>
      <use xlink:href="#DejaVuSans-75" x="176.619141"/>
      <use xlink:href="#DejaVuSans-72" x="239.998047"/>
      <use xlink:href="#DejaVuSans-61" x="281.111328"/>
      <use xlink:href="#DejaVuSans-63" x="342.390625"/>
      <use xlink:href="#DejaVuSans-79" x="397.371094"/>
     </g>
    </g>
   </g>
   <g id="line2d_17">
    <path d="M 73.832727 295.488 
L 74.646398 190.096769 
L 75.460068 174.977619 
L 76.273739 163.147991 
L 77.087409 161.31345 
L 77.90108 160.048249 
L 78.714751 156.568947 
L 79.528421 155.050706 
L 80.342092 148.218621 
L 81.155762 147.522761 
L 81.969433 147.269721 
L 82.783103 146.44734 
L 83.596774 144.486279 
L 84.410444 139.362215 
L 85.224115 138.413315 
L 86.037785 138.856135 
L 86.851456 143.031298 
L 87.665126 141.892617 
L 88.478797 138.919395 
L 89.292468 133.479031 
L 90.106138 137.654194 
L 90.919809 134.111632 
L 91.733479 135.123793 
L 92.54715 136.578774 
L 93.36082 135.693133 
L 94.174491 134.111632 
L 94.988161 138.286795 
L 95.801832 132.340351 
L 96.615502 133.921852 
L 97.429173 133.668812 
L 98.242843 132.846431 
L 99.056514 136.958334 
L 99.870185 138.033755 
L 100.683855 133.162731 
L 101.497526 132.277091 
L 102.311196 135.250313 
L 103.124867 131.45471 
L 103.938537 130.126249 
L 104.752208 132.340351 
L 105.565878 133.162731 
L 106.379549 132.719911 
L 107.193219 138.223535 
L 108.00689 128.101928 
L 108.82056 136.199213 
L 109.634231 131.83427 
L 110.447902 134.744232 
L 111.261572 127.406067 
L 112.075243 125.761306 
L 112.888913 130.252769 
L 113.702584 128.671268 
L 114.516254 129.683429 
L 115.329925 129.240609 
L 116.143595 126.646947 
L 116.957266 129.936469 
L 117.770936 130.56907 
L 118.584607 131.89753 
L 119.398278 130.379289 
L 120.211948 127.089767 
L 121.025619 129.367129 
L 121.839289 128.987568 
L 122.65296 129.493649 
L 123.46663 124.812406 
L 124.280301 126.457167 
L 125.093971 129.114089 
L 125.907642 123.673725 
L 126.721312 130.252769 
L 127.534983 125.761306 
L 128.348653 127.659108 
L 129.162324 127.279547 
L 129.975995 128.734528 
L 130.789665 130.505809 
L 131.603336 128.671268 
L 132.417006 126.520427 
L 133.230677 123.547205 
L 134.044347 124.749146 
L 134.858018 126.710207 
L 135.671688 127.406067 
L 136.485359 126.773467 
L 137.299029 123.610465 
L 138.1127 122.535044 
L 138.92637 126.330647 
L 139.740041 126.520427 
L 140.553712 128.165188 
L 141.367382 126.520427 
L 142.181053 126.583687 
L 142.994723 123.863505 
L 143.808394 126.899987 
L 144.622064 123.294165 
L 145.435735 123.610465 
L 146.249405 119.814862 
L 147.063076 121.902444 
L 147.876746 130.062989 
L 148.690417 121.902444 
L 149.504087 124.812406 
L 150.317758 123.547205 
L 151.131429 123.167645 
L 151.945099 119.688342 
L 152.75877 119.878122 
L 153.57244 120.573983 
L 154.386111 123.104385 
L 156.013452 118.423141 
L 156.827122 123.800245 
L 157.640793 123.420685 
L 158.454463 118.929222 
L 159.268134 119.498562 
L 160.081805 121.206583 
L 160.895475 117.410981 
L 161.709146 121.775924 
L 162.522816 121.965704 
L 163.336487 119.498562 
L 164.150157 120.953543 
L 164.963828 119.245522 
L 165.777498 116.39882 
L 166.591169 122.724824 
L 167.404839 123.104385 
L 168.21851 115.70296 
L 169.03218 123.104385 
L 169.845851 122.282004 
L 171.473192 119.688342 
L 172.286863 117.03142 
L 173.100533 117.284461 
L 173.914204 118.359881 
L 174.727874 117.980321 
L 175.541545 121.143323 
L 176.355215 120.510723 
L 177.168886 116.08252 
L 177.982556 114.754059 
L 178.796227 113.805158 
L 179.609897 119.055742 
L 180.423568 118.865962 
L 181.237239 114.501019 
L 182.050909 112.223657 
L 182.86458 117.09468 
L 183.67825 113.868418 
L 184.491921 116.2723 
L 185.305591 111.148237 
L 186.119262 113.615378 
L 186.932932 115.260139 
L 187.746603 112.160397 
L 188.560273 117.410981 
L 189.373944 113.741898 
L 190.187614 117.790541 
L 191.001285 116.20904 
L 191.814956 115.449919 
L 192.628626 115.70296 
L 193.442297 114.374499 
L 194.255967 114.247979 
L 195.069638 115.133619 
L 195.883308 110.262596 
L 196.696979 115.956 
L 197.510649 112.413437 
L 198.32432 116.84164 
L 199.13799 114.058198 
L 199.951661 113.235818 
L 200.765332 109.693256 
L 201.579002 107.605674 
L 202.392673 112.286917 
L 203.206343 108.870875 
L 204.020014 111.211497 
L 204.833684 107.099594 
L 205.647355 110.136076 
L 206.461025 109.883036 
L 207.274696 109.883036 
L 208.088366 106.024173 
L 208.902037 107.226114 
L 209.715707 107.605674 
L 210.529378 108.428055 
L 211.343049 110.515636 
L 212.156719 111.401277 
L 212.97039 109.440215 
L 213.78406 109.123915 
L 214.597731 105.834393 
L 216.225072 111.527797 
L 217.038742 104.948752 
L 217.852413 109.060655 
L 218.666083 108.175015 
L 219.479754 104.758972 
L 220.293424 109.123915 
L 221.107095 111.148237 
L 221.920766 103.114211 
L 222.734436 107.289374 
L 223.548107 109.440215 
L 224.361777 102.734651 
L 225.175448 108.175015 
L 225.989118 109.250435 
L 226.802789 106.087433 
L 227.616459 106.720034 
L 228.43013 105.771133 
L 229.2438 106.213953 
L 230.057471 106.403733 
L 230.871141 102.544871 
L 231.684812 101.78575 
L 232.498483 103.177471 
L 233.312153 108.175015 
L 234.125824 103.050951 
L 234.939494 106.024173 
L 235.753165 107.352634 
L 236.566835 104.948752 
L 237.380506 101.27967 
L 238.194176 105.960913 
L 239.007847 97.547327 
L 239.821517 100.71033 
L 240.635188 101.91227 
L 241.448859 103.430511 
L 243.0762 99.698169 
L 243.88987 103.367251 
L 244.703541 106.213953 
L 245.517211 98.243188 
L 246.330882 105.771133 
L 247.144552 101.59597 
L 247.958223 102.03879 
L 248.771893 102.10205 
L 249.585564 103.620291 
L 250.399234 101.91227 
L 251.212905 99.508389 
L 252.026576 99.318609 
L 252.840246 100.330769 
L 253.653917 97.990148 
L 254.467587 94.827146 
L 255.281258 99.698169 
L 256.094928 97.610587 
L 256.908599 100.077729 
L 257.722269 96.029086 
L 258.53594 101.97553 
L 259.34961 96.471907 
L 260.163281 96.029086 
L 260.976951 95.396486 
L 261.790622 95.206706 
L 262.604293 96.471907 
L 263.417963 94.953666 
L 264.231634 95.649526 
L 265.045304 97.863628 
L 265.858975 95.712786 
L 266.672645 97.610587 
L 267.486316 97.863628 
L 268.299986 97.231027 
L 269.113657 94.321065 
L 269.927327 97.863628 
L 270.740998 97.420807 
L 271.554668 99.255349 
L 272.368339 95.902566 
L 273.18201 91.537623 
L 273.99568 93.055864 
L 275.623021 95.776046 
L 276.436692 93.941505 
L 277.250362 97.673847 
L 278.064033 95.776046 
L 278.877703 91.411103 
L 279.691374 92.929344 
L 280.505044 92.739564 
L 281.318715 90.335683 
L 282.132386 92.929344 
L 282.946056 91.284583 
L 283.759727 92.423264 
L 284.573397 94.447585 
L 285.387068 93.688465 
L 286.200738 87.805281 
L 287.014409 93.372165 
L 287.828079 91.284583 
L 288.64175 94.890406 
L 289.45542 91.031543 
L 290.269091 94.194545 
L 291.082761 94.194545 
L 291.896432 92.296744 
L 292.710103 89.956122 
L 293.523773 89.829602 
L 294.337444 91.474363 
L 295.151114 90.398943 
L 295.964785 91.158063 
L 296.778455 92.296744 
L 297.592126 87.678761 
L 298.405796 89.260262 
L 299.219467 93.878245 
L 300.033137 84.389239 
L 300.846808 90.778503 
L 301.660478 88.627661 
L 302.474149 97.926888 
L 303.28782 82.238397 
L 304.10149 87.10942 
L 304.915161 85.654439 
L 305.728831 89.956122 
L 306.542502 86.60334 
L 307.356172 86.16052 
L 308.169843 86.47682 
L 308.983513 88.058321 
L 309.797184 88.943962 
L 310.610854 87.488981 
L 311.424525 86.3503 
L 312.238195 86.91964 
L 313.051866 90.968283 
L 313.865537 83.566858 
L 314.679207 84.452499 
L 315.492878 86.91964 
L 316.306548 88.311361 
L 317.120219 85.021839 
L 317.933889 88.058321 
L 318.74756 83.946418 
L 319.56123 84.515759 
L 320.374901 89.703082 
L 321.188571 81.036456 
L 322.002242 82.934258 
L 322.815913 82.364917 
L 323.629583 82.175137 
L 324.443254 82.364917 
L 325.256924 84.642279 
L 326.070595 81.162976 
L 326.884265 83.693378 
L 327.697936 81.162976 
L 328.511606 79.454955 
L 329.325277 82.301657 
L 330.138947 81.542537 
L 330.952618 84.072938 
L 331.766288 82.617957 
L 332.579959 81.922097 
L 333.39363 82.491437 
L 334.2073 84.958579 
L 335.020971 81.479277 
L 335.834641 80.150816 
L 336.648312 82.807738 
L 337.461982 79.771255 
L 338.275653 83.630118 
L 339.089323 81.542537 
L 339.902994 82.744477 
L 340.716664 85.464659 
L 341.530335 80.909936 
L 342.344005 83.883158 
L 343.157676 81.605797 
L 343.971347 80.593636 
L 344.785017 78.822355 
L 345.598688 85.464659 
L 346.412358 84.009678 
L 347.226029 77.557154 
L 348.039699 81.036456 
L 348.85337 75.975653 
L 349.66704 80.403856 
L 350.480711 79.518215 
L 351.294381 82.238397 
L 352.108052 78.253014 
L 353.735393 80.720156 
L 354.549064 78.632575 
L 356.176405 82.554697 
L 356.990075 80.973196 
L 357.803746 81.542537 
L 358.617416 78.126494 
L 359.431087 78.126494 
L 360.244757 77.936714 
L 361.058428 75.596093 
L 361.872098 79.454955 
L 362.685769 79.518215 
L 363.49944 79.201915 
L 364.31311 79.391695 
L 365.126781 77.367374 
L 365.940451 78.759095 
L 366.754122 78.126494 
L 367.567792 78.506055 
L 368.381463 77.683674 
L 369.195133 78.253014 
L 370.008804 76.924554 
L 370.822474 79.897776 
L 371.636145 76.228693 
L 372.449815 78.695835 
L 373.263486 82.364917 
L 374.077157 81.289497 
L 374.890827 79.328435 
L 375.704498 79.961036 
L 376.518168 81.352757 
L 377.331839 73.824812 
L 378.145509 80.783416 
L 378.95918 73.951332 
L 379.77285 73.571771 
L 380.586521 80.214076 
L 381.400191 76.608253 
L 382.213862 78.885615 
L 383.027532 77.051074 
L 383.841203 73.824812 
L 384.654874 80.467116 
L 385.468544 75.026752 
L 386.282215 74.583932 
L 387.095885 80.530376 
L 387.909556 72.686131 
L 388.723226 79.834516 
L 389.536897 78.442795 
L 390.350567 77.493894 
L 391.164238 79.391695 
L 391.977908 78.316275 
L 392.791579 74.077852 
L 393.605249 78.822355 
L 394.41892 78.379535 
L 395.232591 78.316275 
L 396.046261 75.596093 
L 396.859932 78.506055 
L 397.673602 76.798034 
L 398.487273 78.253014 
L 398.487273 78.253014 
" clip-path="url(#pe146970cab)" style="fill: none; stroke: #1f77b4; stroke-width: 1.5; stroke-linecap: square"/>
   </g>
   <g id="line2d_18">
    <path d="M 73.832727 148.152996 
L 74.646398 127.731236 
L 75.460068 115.191558 
L 77.087409 101.577051 
L 77.90108 100.502222 
L 78.714751 94.769798 
L 79.528421 81.513567 
L 80.342092 92.620139 
L 81.155762 88.320821 
L 82.783103 89.753927 
L 83.596774 87.604268 
L 84.410444 89.037374 
L 85.224115 85.096332 
L 86.037785 82.23012 
L 86.851456 90.112203 
L 87.665126 84.379779 
L 88.478797 86.529438 
L 89.292468 86.529438 
L 90.106138 87.245991 
L 90.919809 85.812885 
L 91.733479 81.871844 
L 92.54715 79.363908 
L 93.36082 77.930802 
L 94.174491 84.738056 
L 94.988161 78.647355 
L 95.801832 74.706314 
L 96.615502 81.513567 
L 97.429173 83.30495 
L 98.242843 86.887715 
L 99.056514 84.021503 
L 99.870185 81.871844 
L 101.497526 76.497696 
L 102.311196 86.887715 
L 103.124867 83.663226 
L 103.938537 79.722185 
L 104.752208 73.989761 
L 105.565878 78.289079 
L 106.379549 85.454609 
L 107.193219 87.245991 
L 108.00689 80.438738 
L 108.82056 83.663226 
L 109.634231 79.005632 
L 110.447902 72.556655 
L 111.261572 87.962544 
L 112.075243 82.588397 
L 112.888913 79.722185 
L 113.702584 76.13942 
L 114.516254 87.245991 
L 115.329925 83.30495 
L 116.143595 74.706314 
L 116.957266 72.914931 
L 117.770936 85.454609 
L 118.584607 84.379779 
L 119.398278 78.289079 
L 120.211948 81.513567 
L 121.025619 83.663226 
L 121.839289 77.214249 
L 122.65296 80.797014 
L 123.46663 73.631484 
L 124.280301 76.855973 
L 125.093971 72.556655 
L 125.907642 82.946673 
L 126.721312 73.989761 
L 127.534983 86.171162 
L 128.348653 80.797014 
L 129.162324 77.930802 
L 129.975995 78.289079 
L 130.789665 77.214249 
L 131.603336 77.572526 
L 132.417006 76.855973 
L 133.230677 79.722185 
L 134.044347 74.348037 
L 134.858018 82.946673 
L 135.671688 79.005632 
L 136.485359 73.273208 
L 137.299029 69.332166 
L 138.1127 82.946673 
L 138.92637 73.631484 
L 139.740041 73.273208 
L 140.553712 85.812885 
L 141.367382 76.13942 
L 142.181053 86.529438 
L 142.994723 78.289079 
L 143.808394 74.348037 
L 144.622064 74.348037 
L 145.435735 81.871844 
L 146.249405 81.513567 
L 147.063076 79.363908 
L 147.876746 75.06459 
L 148.690417 72.198378 
L 149.504087 73.989761 
L 150.317758 73.631484 
L 151.131429 77.572526 
L 151.945099 80.080461 
L 152.75877 74.348037 
L 153.57244 70.048719 
L 154.386111 77.930802 
L 155.199781 81.155291 
L 156.013452 79.363908 
L 156.827122 74.706314 
L 157.640793 77.572526 
L 158.454463 73.273208 
L 159.268134 73.989761 
L 160.081805 77.214249 
L 160.895475 75.422867 
L 161.709146 75.422867 
L 162.522816 73.989761 
L 163.336487 79.005632 
L 164.150157 71.840102 
L 164.963828 77.572526 
L 165.777498 73.273208 
L 166.591169 70.406996 
L 167.404839 74.348037 
L 168.21851 73.273208 
L 169.03218 71.123549 
L 169.845851 75.422867 
L 171.473192 75.422867 
L 172.286863 70.765272 
L 173.100533 73.989761 
L 173.914204 78.289079 
L 174.727874 77.930802 
L 175.541545 71.481825 
L 176.355215 76.497696 
L 177.168886 75.781143 
L 177.982556 70.048719 
L 178.796227 75.781143 
L 179.609897 71.481825 
L 180.423568 72.556655 
L 181.237239 68.257337 
L 182.050909 76.497696 
L 182.86458 65.749401 
L 183.67825 68.97389 
L 184.491921 69.332166 
L 185.305591 70.765272 
L 186.119262 73.989761 
L 186.932932 68.615613 
L 187.746603 71.123549 
L 188.560273 71.840102 
L 189.373944 65.749401 
L 190.187614 74.706314 
L 191.001285 67.89906 
L 191.814956 73.273208 
L 192.628626 72.198378 
L 193.442297 63.958019 
L 194.255967 80.438738 
L 195.069638 77.214249 
L 195.883308 71.840102 
L 196.696979 76.497696 
L 197.510649 72.914931 
L 198.32432 72.914931 
L 199.13799 80.797014 
L 199.951661 75.06459 
L 200.765332 71.481825 
L 201.579002 73.273208 
L 202.392673 73.631484 
L 203.206343 75.06459 
L 204.020014 73.273208 
L 204.833684 75.422867 
L 205.647355 75.06459 
L 206.461025 66.465954 
L 207.274696 73.631484 
L 208.088366 72.914931 
L 208.902037 67.182507 
L 209.715707 68.615613 
L 210.529378 71.123549 
L 211.343049 68.615613 
L 212.156719 68.97389 
L 212.97039 72.198378 
L 213.78406 64.674572 
L 214.597731 74.348037 
L 215.411401 67.182507 
L 216.225072 68.615613 
L 217.038742 71.840102 
L 217.852413 71.123549 
L 218.666083 68.97389 
L 219.479754 70.048719 
L 220.293424 65.032848 
L 221.107095 65.391125 
L 221.920766 63.599742 
L 222.734436 71.840102 
L 223.548107 69.690443 
L 224.361777 68.97389 
L 225.175448 66.107678 
L 225.989118 71.123549 
L 226.802789 71.481825 
L 227.616459 67.89906 
L 228.43013 70.048719 
L 229.2438 67.540784 
L 230.057471 60.73353 
L 230.871141 66.465954 
L 231.684812 71.123549 
L 232.498483 69.332166 
L 233.312153 67.89906 
L 234.125824 71.481825 
L 234.939494 70.765272 
L 235.753165 68.257337 
L 236.566835 69.332166 
L 237.380506 71.481825 
L 238.194176 67.89906 
L 239.007847 68.97389 
L 239.821517 60.016977 
L 241.448859 66.824231 
L 242.262529 63.599742 
L 243.0762 65.032848 
L 243.88987 58.942148 
L 244.703541 68.257337 
L 245.517211 68.97389 
L 246.330882 69.332166 
L 247.144552 63.599742 
L 247.958223 69.332166 
L 248.771893 67.540784 
L 249.585564 70.406996 
L 250.399234 67.182507 
L 252.026576 62.166636 
L 252.840246 64.316295 
L 253.653917 63.241466 
L 254.467587 67.540784 
L 255.281258 67.540784 
L 256.094928 68.257337 
L 256.908599 68.615613 
L 258.53594 61.091807 
L 259.34961 60.016977 
L 260.163281 65.391125 
L 260.976951 64.674572 
L 261.790622 65.032848 
L 262.604293 66.107678 
L 263.417963 61.091807 
L 264.231634 65.749401 
L 265.045304 58.942148 
L 265.858975 63.958019 
L 266.672645 66.465954 
L 267.486316 66.465954 
L 268.299986 63.958019 
L 269.113657 63.241466 
L 269.927327 66.465954 
L 271.554668 53.568 
L 272.368339 59.658701 
L 273.18201 64.316295 
L 273.99568 63.241466 
L 274.809351 62.524913 
L 275.623021 62.883189 
L 276.436692 64.674572 
L 277.250362 62.166636 
L 278.064033 64.316295 
L 278.877703 65.749401 
L 279.691374 56.792489 
L 280.505044 65.391125 
L 281.318715 59.300424 
L 282.132386 62.883189 
L 282.946056 62.883189 
L 283.759727 63.599742 
L 284.573397 63.241466 
L 285.387068 63.241466 
L 286.200738 63.958019 
L 287.014409 69.332166 
L 287.828079 61.450083 
L 288.64175 63.241466 
L 289.45542 62.166636 
L 290.269091 62.166636 
L 291.082761 66.107678 
L 291.896432 63.241466 
L 292.710103 68.257337 
L 293.523773 64.674572 
L 294.337444 65.391125 
L 295.151114 60.016977 
L 295.964785 59.300424 
L 296.778455 69.690443 
L 297.592126 63.599742 
L 298.405796 65.391125 
L 299.219467 66.824231 
L 300.033137 65.032848 
L 300.846808 65.032848 
L 301.660478 64.674572 
L 302.474149 64.674572 
L 303.28782 66.465954 
L 304.10149 60.016977 
L 304.915161 65.032848 
L 305.728831 58.942148 
L 306.542502 61.450083 
L 307.356172 61.80836 
L 308.169843 64.674572 
L 308.983513 61.80836 
L 309.797184 60.016977 
L 310.610854 59.658701 
L 311.424525 60.73353 
L 312.238195 61.091807 
L 313.051866 63.241466 
L 313.865537 60.375254 
L 314.679207 59.658701 
L 315.492878 62.524913 
L 316.306548 61.091807 
L 317.120219 64.674572 
L 317.933889 62.524913 
L 318.74756 65.032848 
L 319.56123 63.599742 
L 320.374901 62.883189 
L 321.188571 60.375254 
L 322.002242 61.80836 
L 322.815913 64.674572 
L 323.629583 62.524913 
L 324.443254 62.166636 
L 325.256924 61.450083 
L 326.070595 63.599742 
L 326.884265 63.241466 
L 327.697936 63.241466 
L 328.511606 60.375254 
L 329.325277 63.241466 
L 330.138947 62.166636 
L 330.952618 62.883189 
L 331.766288 60.375254 
L 332.579959 56.792489 
L 333.39363 60.016977 
L 334.2073 59.300424 
L 335.020971 62.524913 
L 335.834641 62.883189 
L 336.648312 62.883189 
L 338.275653 64.316295 
L 339.089323 61.091807 
L 339.902994 62.524913 
L 340.716664 63.599742 
L 341.530335 64.316295 
L 342.344005 63.241466 
L 343.157676 60.375254 
L 343.971347 62.166636 
L 344.785017 61.091807 
L 345.598688 63.241466 
L 346.412358 65.032848 
L 347.226029 62.166636 
L 348.039699 62.524913 
L 348.85337 63.241466 
L 349.66704 63.241466 
L 350.480711 60.016977 
L 351.294381 60.375254 
L 352.108052 64.316295 
L 352.921722 62.524913 
L 353.735393 62.166636 
L 354.549064 61.450083 
L 355.362734 63.958019 
L 356.176405 63.599742 
L 356.990075 64.674572 
L 357.803746 61.091807 
L 358.617416 62.524913 
L 359.431087 61.80836 
L 360.244757 63.241466 
L 361.058428 62.524913 
L 361.872098 64.316295 
L 362.685769 63.241466 
L 363.49944 63.241466 
L 364.31311 62.524913 
L 365.126781 62.524913 
L 365.940451 62.166636 
L 366.754122 61.450083 
L 368.381463 62.883189 
L 369.195133 61.450083 
L 370.822474 60.73353 
L 371.636145 61.450083 
L 372.449815 62.524913 
L 373.263486 62.524913 
L 374.077157 62.166636 
L 374.890827 62.883189 
L 375.704498 61.80836 
L 376.518168 62.166636 
L 377.331839 61.450083 
L 378.145509 61.80836 
L 378.95918 60.73353 
L 379.77285 61.450083 
L 380.586521 60.73353 
L 381.400191 61.80836 
L 382.213862 62.524913 
L 383.027532 61.091807 
L 385.468544 61.091807 
L 386.282215 62.524913 
L 387.095885 62.524913 
L 387.909556 62.883189 
L 388.723226 62.524913 
L 389.536897 61.091807 
L 390.350567 61.091807 
L 391.164238 60.73353 
L 391.977908 61.450083 
L 392.791579 61.091807 
L 394.41892 61.091807 
L 395.232591 61.450083 
L 396.046261 61.091807 
L 398.487273 61.091807 
L 398.487273 61.091807 
" clip-path="url(#pe146970cab)" style="fill: none; stroke: #ff7f0e; stroke-width: 1.5; stroke-linecap: square"/>
   </g>
   <g id="patch_3">
    <path d="M 57.6 307.584 
L 57.6 41.472 
" style="fill: none; stroke: #000000; stroke-width: 0.8; stroke-linejoin: miter; stroke-linecap: square"/>
   </g>
   <g id="patch_4">
    <path d="M 414.72 307.584 
L 414.72 41.472 
" style="fill: none; stroke: #000000; stroke-width: 0.8; stroke-linejoin: miter; stroke-linecap: square"/>
   </g>
   <g id="patch_5">
    <path d="M 57.6 307.584 
L 414.72 307.584 
" style="fill: none; stroke: #000000; stroke-width: 0.8; stroke-linejoin: miter; stroke-linecap: square"/>
   </g>
   <g id="patch_6">
    <path d="M 57.6 41.472 
L 414.72 41.472 
" style="fill: none; stroke: #000000; stroke-width: 0.8; stroke-linejoin: miter; stroke-linecap: square"/>
   </g>
   <g id="text_19">
    <!-- Accuracy per Epoch -->
    <g transform="translate(176.611875 35.472) scale(0.12 -0.12)">
     <defs>
      <path id="DejaVuSans-20" transform="scale(0.015625)"/>
      <path id="DejaVuSans-65" d="M 3597 1894 
L 3597 1613 
L 953 1613 
Q 991 1019 1311 708 
Q 1631 397 2203 397 
Q 2534 397 2845 478 
Q 3156 559 3463 722 
L 3463 178 
Q 3153 47 2828 -22 
Q 2503 -91 2169 -91 
Q 1331 -91 842 396 
Q 353 884 353 1716 
Q 353 2575 817 3079 
Q 1281 3584 2069 3584 
Q 2775 3584 3186 3129 
Q 3597 2675 3597 1894 
z
M 3022 2063 
Q 3016 2534 2758 2815 
Q 2500 3097 2075 3097 
Q 1594 3097 1305 2825 
Q 1016 2553 972 2059 
L 3022 2063 
z
" transform="scale(0.015625)"/>
     </defs>
     <use xlink:href="#DejaVuSans-41"/>
     <use xlink:href="#DejaVuSans-63" x="66.658203"/>
     <use xlink:href="#DejaVuSans-63" x="121.638672"/>
     <use xlink:href="#DejaVuSans-75" x="176.619141"/>
     <use xlink:href="#DejaVuSans-72" x="239.998047"/>
     <use xlink:href="#DejaVuSans-61" x="281.111328"/>
     <use xlink:href="#DejaVuSans-63" x="342.390625"/>
     <use xlink:href="#DejaVuSans-79" x="397.371094"/>
     <use xlink:href="#DejaVuSans-20" x="456.550781"/>
     <use xlink:href="#DejaVuSans-70" x="488.337891"/>
     <use xlink:href="#DejaVuSans-65" x="551.814453"/>
     <use xlink:href="#DejaVuSans-72" x="613.337891"/>
     <use xlink:href="#DejaVuSans-20" x="654.451172"/>
     <use xlink:href="#DejaVuSans-45" x="686.238281"/>
     <use xlink:href="#DejaVuSans-70" x="749.421875"/>
     <use xlink:href="#DejaVuSans-6f" x="812.898438"/>
     <use xlink:href="#DejaVuSans-63" x="874.080078"/>
     <use xlink:href="#DejaVuSans-68" x="929.060547"/>
    </g>
   </g>
   <g id="legend_1">
    <g id="patch_7">
     <path d="M 277.504375 302.584 
L 407.72 302.584 
Q 409.72 302.584 409.72 300.584 
L 409.72 272.22775 
Q 409.72 270.22775 407.72 270.22775 
L 277.504375 270.22775 
Q 275.504375 270.22775 275.504375 272.22775 
L 275.504375 300.584 
Q 275.504375 302.584 277.504375 302.584 
z
" style="fill: #ffffff; opacity: 0.8; stroke: #cccccc; stroke-linejoin: miter"/>
    </g>
    <g id="line2d_19">
     <path d="M 279.504375 278.326187 
L 289.504375 278.326187 
L 299.504375 278.326187 
" style="fill: none; stroke: #1f77b4; stroke-width: 1.5; stroke-linecap: square"/>
    </g>
    <g id="text_20">
     <!-- Training Accuracy -->
     <g transform="translate(307.504375 281.826187) scale(0.1 -0.1)">
      <defs>
       <path id="DejaVuSans-54" d="M -19 4666 
L 3928 4666 
L 3928 4134 
L 2272 4134 
L 2272 0 
L 1638 0 
L 1638 4134 
L -19 4134 
L -19 4666 
z
" transform="scale(0.015625)"/>
       <path id="DejaVuSans-69" d="M 603 3500 
L 1178 3500 
L 1178 0 
L 603 0 
L 603 3500 
z
M 603 4863 
L 1178 4863 
L 1178 4134 
L 603 4134 
L 603 4863 
z
" transform="scale(0.015625)"/>
       <path id="DejaVuSans-6e" d="M 3513 2113 
L 3513 0 
L 2938 0 
L 2938 2094 
Q 2938 2591 2744 2837 
Q 2550 3084 2163 3084 
Q 1697 3084 1428 2787 
Q 1159 2491 1159 1978 
L 1159 0 
L 581 0 
L 581 3500 
L 1159 3500 
L 1159 2956 
Q 1366 3272 1645 3428 
Q 1925 3584 2291 3584 
Q 2894 3584 3203 3211 
Q 3513 2838 3513 2113 
z
" transform="scale(0.015625)"/>
       <path id="DejaVuSans-67" d="M 2906 1791 
Q 2906 2416 2648 2759 
Q 2391 3103 1925 3103 
Q 1463 3103 1205 2759 
Q 947 2416 947 1791 
Q 947 1169 1205 825 
Q 1463 481 1925 481 
Q 2391 481 2648 825 
Q 2906 1169 2906 1791 
z
M 3481 434 
Q 3481 -459 3084 -895 
Q 2688 -1331 1869 -1331 
Q 1566 -1331 1297 -1286 
Q 1028 -1241 775 -1147 
L 775 -588 
Q 1028 -725 1275 -790 
Q 1522 -856 1778 -856 
Q 2344 -856 2625 -561 
Q 2906 -266 2906 331 
L 2906 616 
Q 2728 306 2450 153 
Q 2172 0 1784 0 
Q 1141 0 747 490 
Q 353 981 353 1791 
Q 353 2603 747 3093 
Q 1141 3584 1784 3584 
Q 2172 3584 2450 3431 
Q 2728 3278 2906 2969 
L 2906 3500 
L 3481 3500 
L 3481 434 
z
" transform="scale(0.015625)"/>
      </defs>
      <use xlink:href="#DejaVuSans-54"/>
      <use xlink:href="#DejaVuSans-72" x="46.333984"/>
      <use xlink:href="#DejaVuSans-61" x="87.447266"/>
      <use xlink:href="#DejaVuSans-69" x="148.726562"/>
      <use xlink:href="#DejaVuSans-6e" x="176.509766"/>
      <use xlink:href="#DejaVuSans-69" x="239.888672"/>
      <use xlink:href="#DejaVuSans-6e" x="267.671875"/>
      <use xlink:href="#DejaVuSans-67" x="331.050781"/>
      <use xlink:href="#DejaVuSans-20" x="394.527344"/>
      <use xlink:href="#DejaVuSans-41" x="426.314453"/>
      <use xlink:href="#DejaVuSans-63" x="492.972656"/>
      <use xlink:href="#DejaVuSans-63" x="547.953125"/>
      <use xlink:href="#DejaVuSans-75" x="602.933594"/>
      <use xlink:href="#DejaVuSans-72" x="666.3125"/>
      <use xlink:href="#DejaVuSans-61" x="707.425781"/>
      <use xlink:href="#DejaVuSans-63" x="768.705078"/>
      <use xlink:href="#DejaVuSans-79" x="823.685547"/>
     </g>
    </g>
    <g id="line2d_20">
     <path d="M 279.504375 293.004312 
L 289.504375 293.004312 
L 299.504375 293.004312 
" style="fill: none; stroke: #ff7f0e; stroke-width: 1.5; stroke-linecap: square"/>
    </g>
    <g id="text_21">
     <!-- Validation Accuracy -->
     <g transform="translate(307.504375 296.504312) scale(0.1 -0.1)">
      <defs>
       <path id="DejaVuSans-56" d="M 1831 0 
L 50 4666 
L 709 4666 
L 2188 738 
L 3669 4666 
L 4325 4666 
L 2547 0 
L 1831 0 
z
" transform="scale(0.015625)"/>
       <path id="DejaVuSans-6c" d="M 603 4863 
L 1178 4863 
L 1178 0 
L 603 0 
L 603 4863 
z
" transform="scale(0.015625)"/>
       <path id="DejaVuSans-64" d="M 2906 2969 
L 2906 4863 
L 3481 4863 
L 3481 0 
L 2906 0 
L 2906 525 
Q 2725 213 2448 61 
Q 2172 -91 1784 -91 
Q 1150 -91 751 415 
Q 353 922 353 1747 
Q 353 2572 751 3078 
Q 1150 3584 1784 3584 
Q 2172 3584 2448 3432 
Q 2725 3281 2906 2969 
z
M 947 1747 
Q 947 1113 1208 752 
Q 1469 391 1925 391 
Q 2381 391 2643 752 
Q 2906 1113 2906 1747 
Q 2906 2381 2643 2742 
Q 2381 3103 1925 3103 
Q 1469 3103 1208 2742 
Q 947 2381 947 1747 
z
" transform="scale(0.015625)"/>
       <path id="DejaVuSans-74" d="M 1172 4494 
L 1172 3500 
L 2356 3500 
L 2356 3053 
L 1172 3053 
L 1172 1153 
Q 1172 725 1289 603 
Q 1406 481 1766 481 
L 2356 481 
L 2356 0 
L 1766 0 
Q 1100 0 847 248 
Q 594 497 594 1153 
L 594 3053 
L 172 3053 
L 172 3500 
L 594 3500 
L 594 4494 
L 1172 4494 
z
" transform="scale(0.015625)"/>
      </defs>
      <use xlink:href="#DejaVuSans-56"/>
      <use xlink:href="#DejaVuSans-61" x="60.658203"/>
      <use xlink:href="#DejaVuSans-6c" x="121.9375"/>
      <use xlink:href="#DejaVuSans-69" x="149.720703"/>
      <use xlink:href="#DejaVuSans-64" x="177.503906"/>
      <use xlink:href="#DejaVuSans-61" x="240.980469"/>
      <use xlink:href="#DejaVuSans-74" x="302.259766"/>
      <use xlink:href="#DejaVuSans-69" x="341.46875"/>
      <use xlink:href="#DejaVuSans-6f" x="369.251953"/>
      <use xlink:href="#DejaVuSans-6e" x="430.433594"/>
      <use xlink:href="#DejaVuSans-20" x="493.8125"/>
      <use xlink:href="#DejaVuSans-41" x="525.599609"/>
      <use xlink:href="#DejaVuSans-63" x="592.257812"/>
      <use xlink:href="#DejaVuSans-63" x="647.238281"/>
      <use xlink:href="#DejaVuSans-75" x="702.21875"/>
      <use xlink:href="#DejaVuSans-72" x="765.597656"/>
      <use xlink:href="#DejaVuSans-61" x="806.710938"/>
      <use xlink:href="#DejaVuSans-63" x="867.990234"/>
      <use xlink:href="#DejaVuSans-79" x="922.970703"/>
     </g>
    </g>
   </g>
  </g>
 </g>
 <defs>
  <clipPath id="pe146970cab">
   <rect x="57.6" y="41.472" width="357.12" height="266.112"/>
  </clipPath>
 </defs>
</svg>
