<?xml version="1.0" encoding="utf-8" standalone="no"?>
<!DOCTYPE svg PUBLIC "-//W3C//DTD SVG 1.1//EN"
  "http://www.w3.org/Graphics/SVG/1.1/DTD/svg11.dtd">
<svg xmlns:xlink="http://www.w3.org/1999/xlink" width="460.8pt" height="345.6pt" viewBox="0 0 460.8 345.6" xmlns="http://www.w3.org/2000/svg" version="1.1">
 <metadata>
  <rdf:RDF xmlns:dc="http://purl.org/dc/elements/1.1/" xmlns:cc="http://creativecommons.org/ns#" xmlns:rdf="http://www.w3.org/1999/02/22-rdf-syntax-ns#">
   <cc:Work>
    <dc:type rdf:resource="http://purl.org/dc/dcmitype/StillImage"/>
    <dc:date>2024-03-05T02:38:28.877442</dc:date>
    <dc:format>image/svg+xml</dc:format>
    <dc:creator>
     <cc:Agent>
      <dc:title>Matplotlib v3.8.0, https://matplotlib.org/</dc:title>
     </cc:Agent>
    </dc:creator>
   </cc:Work>
  </rdf:RDF>
 </metadata>
 <defs>
  <style type="text/css">*{stroke-linejoin: round; stroke-linecap: butt}</style>
 </defs>
 <g id="figure_1">
  <g id="patch_1">
   <path d="M 0 345.6 
L 460.8 345.6 
L 460.8 0 
L 0 0 
z
" style="fill: #ffffff"/>
  </g>
  <g id="axes_1">
   <g id="patch_2">
    <path d="M 57.6 307.584 
L 414.72 307.584 
L 414.72 41.472 
L 57.6 41.472 
z
" style="fill: #ffffff"/>
   </g>
   <g id="matplotlib.axis_1">
    <g id="xtick_1">
     <g id="line2d_1">
      <defs>
       <path id="mc9609c3feb" d="M 0 0 
L 0 3.5 
" style="stroke: #000000; stroke-width: 0.8"/>
      </defs>
      <g>
       <use xlink:href="#mc9609c3feb" x="73.832727" y="307.584" style="stroke: #000000; stroke-width: 0.8"/>
      </g>
     </g>
     <g id="text_1">
      <!-- 0 -->
      <g transform="translate(70.651477 322.182437) scale(0.1 -0.1)">
       <defs>
        <path id="DejaVuSans-30" d="M 2034 4250 
Q 1547 4250 1301 3770 
Q 1056 3291 1056 2328 
Q 1056 1369 1301 889 
Q 1547 409 2034 409 
Q 2525 409 2770 889 
Q 3016 1369 3016 2328 
Q 3016 3291 2770 3770 
Q 2525 4250 2034 4250 
z
M 2034 4750 
Q 2819 4750 3233 4129 
Q 3647 3509 3647 2328 
Q 3647 1150 3233 529 
Q 2819 -91 2034 -91 
Q 1250 -91 836 529 
Q 422 1150 422 2328 
Q 422 3509 836 4129 
Q 1250 4750 2034 4750 
z
" transform="scale(0.015625)"/>
       </defs>
       <use xlink:href="#DejaVuSans-30"/>
      </g>
     </g>
    </g>
    <g id="xtick_2">
     <g id="line2d_2">
      <g>
       <use xlink:href="#mc9609c3feb" x="114.516254" y="307.584" style="stroke: #000000; stroke-width: 0.8"/>
      </g>
     </g>
     <g id="text_2">
      <!-- 50 -->
      <g transform="translate(108.153754 322.182437) scale(0.1 -0.1)">
       <defs>
        <path id="DejaVuSans-35" d="M 691 4666 
L 3169 4666 
L 3169 4134 
L 1269 4134 
L 1269 2991 
Q 1406 3038 1543 3061 
Q 1681 3084 1819 3084 
Q 2600 3084 3056 2656 
Q 3513 2228 3513 1497 
Q 3513 744 3044 326 
Q 2575 -91 1722 -91 
Q 1428 -91 1123 -41 
Q 819 9 494 109 
L 494 744 
Q 775 591 1075 516 
Q 1375 441 1709 441 
Q 2250 441 2565 725 
Q 2881 1009 2881 1497 
Q 2881 1984 2565 2268 
Q 2250 2553 1709 2553 
Q 1456 2553 1204 2497 
Q 953 2441 691 2322 
L 691 4666 
z
" transform="scale(0.015625)"/>
       </defs>
       <use xlink:href="#DejaVuSans-35"/>
       <use xlink:href="#DejaVuSans-30" x="63.623047"/>
      </g>
     </g>
    </g>
    <g id="xtick_3">
     <g id="line2d_3">
      <g>
       <use xlink:href="#mc9609c3feb" x="155.199781" y="307.584" style="stroke: #000000; stroke-width: 0.8"/>
      </g>
     </g>
     <g id="text_3">
      <!-- 100 -->
      <g transform="translate(145.656031 322.182437) scale(0.1 -0.1)">
       <defs>
        <path id="DejaVuSans-31" d="M 794 531 
L 1825 531 
L 1825 4091 
L 703 3866 
L 703 4441 
L 1819 4666 
L 2450 4666 
L 2450 531 
L 3481 531 
L 3481 0 
L 794 0 
L 794 531 
z
" transform="scale(0.015625)"/>
       </defs>
       <use xlink:href="#DejaVuSans-31"/>
       <use xlink:href="#DejaVuSans-30" x="63.623047"/>
       <use xlink:href="#DejaVuSans-30" x="127.246094"/>
      </g>
     </g>
    </g>
    <g id="xtick_4">
     <g id="line2d_4">
      <g>
       <use xlink:href="#mc9609c3feb" x="195.883308" y="307.584" style="stroke: #000000; stroke-width: 0.8"/>
      </g>
     </g>
     <g id="text_4">
      <!-- 150 -->
      <g transform="translate(186.339558 322.182437) scale(0.1 -0.1)">
       <use xlink:href="#DejaVuSans-31"/>
       <use xlink:href="#DejaVuSans-35" x="63.623047"/>
       <use xlink:href="#DejaVuSans-30" x="127.246094"/>
      </g>
     </g>
    </g>
    <g id="xtick_5">
     <g id="line2d_5">
      <g>
       <use xlink:href="#mc9609c3feb" x="236.566835" y="307.584" style="stroke: #000000; stroke-width: 0.8"/>
      </g>
     </g>
     <g id="text_5">
      <!-- 200 -->
      <g transform="translate(227.023085 322.182437) scale(0.1 -0.1)">
       <defs>
        <path id="DejaVuSans-32" d="M 1228 531 
L 3431 531 
L 3431 0 
L 469 0 
L 469 531 
Q 828 903 1448 1529 
Q 2069 2156 2228 2338 
Q 2531 2678 2651 2914 
Q 2772 3150 2772 3378 
Q 2772 3750 2511 3984 
Q 2250 4219 1831 4219 
Q 1534 4219 1204 4116 
Q 875 4013 500 3803 
L 500 4441 
Q 881 4594 1212 4672 
Q 1544 4750 1819 4750 
Q 2544 4750 2975 4387 
Q 3406 4025 3406 3419 
Q 3406 3131 3298 2873 
Q 3191 2616 2906 2266 
Q 2828 2175 2409 1742 
Q 1991 1309 1228 531 
z
" transform="scale(0.015625)"/>
       </defs>
       <use xlink:href="#DejaVuSans-32"/>
       <use xlink:href="#DejaVuSans-30" x="63.623047"/>
       <use xlink:href="#DejaVuSans-30" x="127.246094"/>
      </g>
     </g>
    </g>
    <g id="xtick_6">
     <g id="line2d_6">
      <g>
       <use xlink:href="#mc9609c3feb" x="277.250362" y="307.584" style="stroke: #000000; stroke-width: 0.8"/>
      </g>
     </g>
     <g id="text_6">
      <!-- 250 -->
      <g transform="translate(267.706612 322.182437) scale(0.1 -0.1)">
       <use xlink:href="#DejaVuSans-32"/>
       <use xlink:href="#DejaVuSans-35" x="63.623047"/>
       <use xlink:href="#DejaVuSans-30" x="127.246094"/>
      </g>
     </g>
    </g>
    <g id="xtick_7">
     <g id="line2d_7">
      <g>
       <use xlink:href="#mc9609c3feb" x="317.933889" y="307.584" style="stroke: #000000; stroke-width: 0.8"/>
      </g>
     </g>
     <g id="text_7">
      <!-- 300 -->
      <g transform="translate(308.390139 322.182437) scale(0.1 -0.1)">
       <defs>
        <path id="DejaVuSans-33" d="M 2597 2516 
Q 3050 2419 3304 2112 
Q 3559 1806 3559 1356 
Q 3559 666 3084 287 
Q 2609 -91 1734 -91 
Q 1441 -91 1130 -33 
Q 819 25 488 141 
L 488 750 
Q 750 597 1062 519 
Q 1375 441 1716 441 
Q 2309 441 2620 675 
Q 2931 909 2931 1356 
Q 2931 1769 2642 2001 
Q 2353 2234 1838 2234 
L 1294 2234 
L 1294 2753 
L 1863 2753 
Q 2328 2753 2575 2939 
Q 2822 3125 2822 3475 
Q 2822 3834 2567 4026 
Q 2313 4219 1838 4219 
Q 1578 4219 1281 4162 
Q 984 4106 628 3988 
L 628 4550 
Q 988 4650 1302 4700 
Q 1616 4750 1894 4750 
Q 2613 4750 3031 4423 
Q 3450 4097 3450 3541 
Q 3450 3153 3228 2886 
Q 3006 2619 2597 2516 
z
" transform="scale(0.015625)"/>
       </defs>
       <use xlink:href="#DejaVuSans-33"/>
       <use xlink:href="#DejaVuSans-30" x="63.623047"/>
       <use xlink:href="#DejaVuSans-30" x="127.246094"/>
      </g>
     </g>
    </g>
    <g id="xtick_8">
     <g id="line2d_8">
      <g>
       <use xlink:href="#mc9609c3feb" x="358.617416" y="307.584" style="stroke: #000000; stroke-width: 0.8"/>
      </g>
     </g>
     <g id="text_8">
      <!-- 350 -->
      <g transform="translate(349.073666 322.182437) scale(0.1 -0.1)">
       <use xlink:href="#DejaVuSans-33"/>
       <use xlink:href="#DejaVuSans-35" x="63.623047"/>
       <use xlink:href="#DejaVuSans-30" x="127.246094"/>
      </g>
     </g>
    </g>
    <g id="xtick_9">
     <g id="line2d_9">
      <g>
       <use xlink:href="#mc9609c3feb" x="399.300943" y="307.584" style="stroke: #000000; stroke-width: 0.8"/>
      </g>
     </g>
     <g id="text_9">
      <!-- 400 -->
      <g transform="translate(389.757193 322.182437) scale(0.1 -0.1)">
       <defs>
        <path id="DejaVuSans-34" d="M 2419 4116 
L 825 1625 
L 2419 1625 
L 2419 4116 
z
M 2253 4666 
L 3047 4666 
L 3047 1625 
L 3713 1625 
L 3713 1100 
L 3047 1100 
L 3047 0 
L 2419 0 
L 2419 1100 
L 313 1100 
L 313 1709 
L 2253 4666 
z
" transform="scale(0.015625)"/>
       </defs>
       <use xlink:href="#DejaVuSans-34"/>
       <use xlink:href="#DejaVuSans-30" x="63.623047"/>
       <use xlink:href="#DejaVuSans-30" x="127.246094"/>
      </g>
     </g>
    </g>
    <g id="text_10">
     <!-- Epoch -->
     <g transform="translate(220.849063 335.860562) scale(0.1 -0.1)">
      <defs>
       <path id="DejaVuSans-45" d="M 628 4666 
L 3578 4666 
L 3578 4134 
L 1259 4134 
L 1259 2753 
L 3481 2753 
L 3481 2222 
L 1259 2222 
L 1259 531 
L 3634 531 
L 3634 0 
L 628 0 
L 628 4666 
z
" transform="scale(0.015625)"/>
       <path id="DejaVuSans-70" d="M 1159 525 
L 1159 -1331 
L 581 -1331 
L 581 3500 
L 1159 3500 
L 1159 2969 
Q 1341 3281 1617 3432 
Q 1894 3584 2278 3584 
Q 2916 3584 3314 3078 
Q 3713 2572 3713 1747 
Q 3713 922 3314 415 
Q 2916 -91 2278 -91 
Q 1894 -91 1617 61 
Q 1341 213 1159 525 
z
M 3116 1747 
Q 3116 2381 2855 2742 
Q 2594 3103 2138 3103 
Q 1681 3103 1420 2742 
Q 1159 2381 1159 1747 
Q 1159 1113 1420 752 
Q 1681 391 2138 391 
Q 2594 391 2855 752 
Q 3116 1113 3116 1747 
z
" transform="scale(0.015625)"/>
       <path id="DejaVuSans-6f" d="M 1959 3097 
Q 1497 3097 1228 2736 
Q 959 2375 959 1747 
Q 959 1119 1226 758 
Q 1494 397 1959 397 
Q 2419 397 2687 759 
Q 2956 1122 2956 1747 
Q 2956 2369 2687 2733 
Q 2419 3097 1959 3097 
z
M 1959 3584 
Q 2709 3584 3137 3096 
Q 3566 2609 3566 1747 
Q 3566 888 3137 398 
Q 2709 -91 1959 -91 
Q 1206 -91 779 398 
Q 353 888 353 1747 
Q 353 2609 779 3096 
Q 1206 3584 1959 3584 
z
" transform="scale(0.015625)"/>
       <path id="DejaVuSans-63" d="M 3122 3366 
L 3122 2828 
Q 2878 2963 2633 3030 
Q 2388 3097 2138 3097 
Q 1578 3097 1268 2742 
Q 959 2388 959 1747 
Q 959 1106 1268 751 
Q 1578 397 2138 397 
Q 2388 397 2633 464 
Q 2878 531 3122 666 
L 3122 134 
Q 2881 22 2623 -34 
Q 2366 -91 2075 -91 
Q 1284 -91 818 406 
Q 353 903 353 1747 
Q 353 2603 823 3093 
Q 1294 3584 2113 3584 
Q 2378 3584 2631 3529 
Q 2884 3475 3122 3366 
z
" transform="scale(0.015625)"/>
       <path id="DejaVuSans-68" d="M 3513 2113 
L 3513 0 
L 2938 0 
L 2938 2094 
Q 2938 2591 2744 2837 
Q 2550 3084 2163 3084 
Q 1697 3084 1428 2787 
Q 1159 2491 1159 1978 
L 1159 0 
L 581 0 
L 581 4863 
L 1159 4863 
L 1159 2956 
Q 1366 3272 1645 3428 
Q 1925 3584 2291 3584 
Q 2894 3584 3203 3211 
Q 3513 2838 3513 2113 
z
" transform="scale(0.015625)"/>
      </defs>
      <use xlink:href="#DejaVuSans-45"/>
      <use xlink:href="#DejaVuSans-70" x="63.183594"/>
      <use xlink:href="#DejaVuSans-6f" x="126.660156"/>
      <use xlink:href="#DejaVuSans-63" x="187.841797"/>
      <use xlink:href="#DejaVuSans-68" x="242.822266"/>
     </g>
    </g>
   </g>
   <g id="matplotlib.axis_2">
    <g id="ytick_1">
     <g id="line2d_10">
      <defs>
       <path id="mec1bec1f88" d="M 0 0 
L -3.5 0 
" style="stroke: #000000; stroke-width: 0.8"/>
      </defs>
      <g>
       <use xlink:href="#mec1bec1f88" x="57.6" y="273.859487" style="stroke: #000000; stroke-width: 0.8"/>
      </g>
     </g>
     <g id="text_11">
      <!-- 1.2 -->
      <g transform="translate(34.696875 277.658706) scale(0.1 -0.1)">
       <defs>
        <path id="DejaVuSans-2e" d="M 684 794 
L 1344 794 
L 1344 0 
L 684 0 
L 684 794 
z
" transform="scale(0.015625)"/>
       </defs>
       <use xlink:href="#DejaVuSans-31"/>
       <use xlink:href="#DejaVuSans-2e" x="63.623047"/>
       <use xlink:href="#DejaVuSans-32" x="95.410156"/>
      </g>
     </g>
    </g>
    <g id="ytick_2">
     <g id="line2d_11">
      <g>
       <use xlink:href="#mec1bec1f88" x="57.6" y="237.146237" style="stroke: #000000; stroke-width: 0.8"/>
      </g>
     </g>
     <g id="text_12">
      <!-- 1.4 -->
      <g transform="translate(34.696875 240.945456) scale(0.1 -0.1)">
       <use xlink:href="#DejaVuSans-31"/>
       <use xlink:href="#DejaVuSans-2e" x="63.623047"/>
       <use xlink:href="#DejaVuSans-34" x="95.410156"/>
      </g>
     </g>
    </g>
    <g id="ytick_3">
     <g id="line2d_12">
      <g>
       <use xlink:href="#mec1bec1f88" x="57.6" y="200.432987" style="stroke: #000000; stroke-width: 0.8"/>
      </g>
     </g>
     <g id="text_13">
      <!-- 1.6 -->
      <g transform="translate(34.696875 204.232206) scale(0.1 -0.1)">
       <defs>
        <path id="DejaVuSans-36" d="M 2113 2584 
Q 1688 2584 1439 2293 
Q 1191 2003 1191 1497 
Q 1191 994 1439 701 
Q 1688 409 2113 409 
Q 2538 409 2786 701 
Q 3034 994 3034 1497 
Q 3034 2003 2786 2293 
Q 2538 2584 2113 2584 
z
M 3366 4563 
L 3366 3988 
Q 3128 4100 2886 4159 
Q 2644 4219 2406 4219 
Q 1781 4219 1451 3797 
Q 1122 3375 1075 2522 
Q 1259 2794 1537 2939 
Q 1816 3084 2150 3084 
Q 2853 3084 3261 2657 
Q 3669 2231 3669 1497 
Q 3669 778 3244 343 
Q 2819 -91 2113 -91 
Q 1303 -91 875 529 
Q 447 1150 447 2328 
Q 447 3434 972 4092 
Q 1497 4750 2381 4750 
Q 2619 4750 2861 4703 
Q 3103 4656 3366 4563 
z
" transform="scale(0.015625)"/>
       </defs>
       <use xlink:href="#DejaVuSans-31"/>
       <use xlink:href="#DejaVuSans-2e" x="63.623047"/>
       <use xlink:href="#DejaVuSans-36" x="95.410156"/>
      </g>
     </g>
    </g>
    <g id="ytick_4">
     <g id="line2d_13">
      <g>
       <use xlink:href="#mec1bec1f88" x="57.6" y="163.719737" style="stroke: #000000; stroke-width: 0.8"/>
      </g>
     </g>
     <g id="text_14">
      <!-- 1.8 -->
      <g transform="translate(34.696875 167.518956) scale(0.1 -0.1)">
       <defs>
        <path id="DejaVuSans-38" d="M 2034 2216 
Q 1584 2216 1326 1975 
Q 1069 1734 1069 1313 
Q 1069 891 1326 650 
Q 1584 409 2034 409 
Q 2484 409 2743 651 
Q 3003 894 3003 1313 
Q 3003 1734 2745 1975 
Q 2488 2216 2034 2216 
z
M 1403 2484 
Q 997 2584 770 2862 
Q 544 3141 544 3541 
Q 544 4100 942 4425 
Q 1341 4750 2034 4750 
Q 2731 4750 3128 4425 
Q 3525 4100 3525 3541 
Q 3525 3141 3298 2862 
Q 3072 2584 2669 2484 
Q 3125 2378 3379 2068 
Q 3634 1759 3634 1313 
Q 3634 634 3220 271 
Q 2806 -91 2034 -91 
Q 1263 -91 848 271 
Q 434 634 434 1313 
Q 434 1759 690 2068 
Q 947 2378 1403 2484 
z
M 1172 3481 
Q 1172 3119 1398 2916 
Q 1625 2713 2034 2713 
Q 2441 2713 2670 2916 
Q 2900 3119 2900 3481 
Q 2900 3844 2670 4047 
Q 2441 4250 2034 4250 
Q 1625 4250 1398 4047 
Q 1172 3844 1172 3481 
z
" transform="scale(0.015625)"/>
       </defs>
       <use xlink:href="#DejaVuSans-31"/>
       <use xlink:href="#DejaVuSans-2e" x="63.623047"/>
       <use xlink:href="#DejaVuSans-38" x="95.410156"/>
      </g>
     </g>
    </g>
    <g id="ytick_5">
     <g id="line2d_14">
      <g>
       <use xlink:href="#mec1bec1f88" x="57.6" y="127.006487" style="stroke: #000000; stroke-width: 0.8"/>
      </g>
     </g>
     <g id="text_15">
      <!-- 2.0 -->
      <g transform="translate(34.696875 130.805706) scale(0.1 -0.1)">
       <use xlink:href="#DejaVuSans-32"/>
       <use xlink:href="#DejaVuSans-2e" x="63.623047"/>
       <use xlink:href="#DejaVuSans-30" x="95.410156"/>
      </g>
     </g>
    </g>
    <g id="ytick_6">
     <g id="line2d_15">
      <g>
       <use xlink:href="#mec1bec1f88" x="57.6" y="90.293237" style="stroke: #000000; stroke-width: 0.8"/>
      </g>
     </g>
     <g id="text_16">
      <!-- 2.2 -->
      <g transform="translate(34.696875 94.092456) scale(0.1 -0.1)">
       <use xlink:href="#DejaVuSans-32"/>
       <use xlink:href="#DejaVuSans-2e" x="63.623047"/>
       <use xlink:href="#DejaVuSans-32" x="95.410156"/>
      </g>
     </g>
    </g>
    <g id="ytick_7">
     <g id="line2d_16">
      <g>
       <use xlink:href="#mec1bec1f88" x="57.6" y="53.579987" style="stroke: #000000; stroke-width: 0.8"/>
      </g>
     </g>
     <g id="text_17">
      <!-- 2.4 -->
      <g transform="translate(34.696875 57.379206) scale(0.1 -0.1)">
       <use xlink:href="#DejaVuSans-32"/>
       <use xlink:href="#DejaVuSans-2e" x="63.623047"/>
       <use xlink:href="#DejaVuSans-34" x="95.410156"/>
      </g>
     </g>
    </g>
    <g id="text_18">
     <!-- Loss -->
     <g transform="translate(28.617188 185.495187) rotate(-90) scale(0.1 -0.1)">
      <defs>
       <path id="DejaVuSans-4c" d="M 628 4666 
L 1259 4666 
L 1259 531 
L 3531 531 
L 3531 0 
L 628 0 
L 628 4666 
z
" transform="scale(0.015625)"/>
       <path id="DejaVuSans-73" d="M 2834 3397 
L 2834 2853 
Q 2591 2978 2328 3040 
Q 2066 3103 1784 3103 
Q 1356 3103 1142 2972 
Q 928 2841 928 2578 
Q 928 2378 1081 2264 
Q 1234 2150 1697 2047 
L 1894 2003 
Q 2506 1872 2764 1633 
Q 3022 1394 3022 966 
Q 3022 478 2636 193 
Q 2250 -91 1575 -91 
Q 1294 -91 989 -36 
Q 684 19 347 128 
L 347 722 
Q 666 556 975 473 
Q 1284 391 1588 391 
Q 1994 391 2212 530 
Q 2431 669 2431 922 
Q 2431 1156 2273 1281 
Q 2116 1406 1581 1522 
L 1381 1569 
Q 847 1681 609 1914 
Q 372 2147 372 2553 
Q 372 3047 722 3315 
Q 1072 3584 1716 3584 
Q 2034 3584 2315 3537 
Q 2597 3491 2834 3397 
z
" transform="scale(0.015625)"/>
      </defs>
      <use xlink:href="#DejaVuSans-4c"/>
      <use xlink:href="#DejaVuSans-6f" x="53.962891"/>
      <use xlink:href="#DejaVuSans-73" x="115.144531"/>
      <use xlink:href="#DejaVuSans-73" x="167.244141"/>
     </g>
    </g>
   </g>
   <g id="line2d_17">
    <path d="M 73.832727 53.568 
L 74.646398 175.548344 
L 75.460068 193.856783 
L 76.273739 203.756683 
L 77.087409 207.151871 
L 78.714751 215.680771 
L 79.528421 217.086281 
L 80.342092 221.799854 
L 81.155762 221.421499 
L 81.969433 224.682461 
L 82.783103 224.438234 
L 83.596774 224.791612 
L 84.410444 229.191956 
L 85.224115 230.804312 
L 86.037785 230.574985 
L 86.851456 231.113573 
L 87.665126 231.136005 
L 88.478797 231.974484 
L 89.292468 235.566897 
L 90.106138 232.803492 
L 90.919809 234.808047 
L 91.733479 236.198641 
L 92.54715 232.250502 
L 93.36082 235.121093 
L 94.174491 235.070658 
L 94.988161 234.043632 
L 96.615502 237.20636 
L 97.429173 236.657687 
L 98.242843 237.496724 
L 99.056514 234.017434 
L 99.870185 234.337368 
L 100.683855 236.762978 
L 101.497526 238.174712 
L 102.311196 236.768316 
L 103.124867 236.511322 
L 103.938537 240.322161 
L 104.752208 237.195831 
L 105.565878 239.247579 
L 106.379549 239.23355 
L 107.193219 236.606202 
L 108.00689 242.579765 
L 108.82056 237.295902 
L 109.634231 238.482413 
L 110.447902 238.889423 
L 111.261572 241.405459 
L 112.075243 242.416293 
L 112.888913 241.786752 
L 113.702584 242.174922 
L 114.516254 240.361616 
L 115.329925 242.783384 
L 116.143595 242.352409 
L 116.957266 243.082968 
L 117.770936 240.261581 
L 118.584607 236.927692 
L 119.398278 240.87239 
L 120.211948 242.62305 
L 121.025619 239.085738 
L 121.839289 244.084513 
L 122.65296 240.912079 
L 123.46663 244.63832 
L 124.280301 245.356517 
L 125.093971 242.447821 
L 125.907642 245.179866 
L 126.721312 245.388776 
L 128.348653 243.138161 
L 129.162324 245.237815 
L 129.975995 242.642667 
L 130.789665 244.313838 
L 131.603336 244.117528 
L 132.417006 246.821681 
L 133.230677 246.826291 
L 134.044347 244.141523 
L 134.858018 244.704611 
L 135.671688 245.428191 
L 136.485359 245.453652 
L 137.299029 244.456066 
L 138.1127 246.450238 
L 138.92637 245.969978 
L 139.740041 247.440559 
L 140.553712 244.67351 
L 141.367382 245.943189 
L 142.181053 248.089693 
L 142.994723 247.827664 
L 143.808394 246.708812 
L 144.622064 248.987448 
L 145.435735 246.306695 
L 146.249405 247.902139 
L 147.063076 249.895028 
L 147.876746 242.922539 
L 148.690417 248.766638 
L 149.504087 246.838306 
L 150.317758 248.763015 
L 151.131429 248.915745 
L 151.945099 250.520615 
L 152.75877 250.986325 
L 153.57244 247.863723 
L 154.386111 249.938646 
L 156.013452 252.042168 
L 156.827122 250.044922 
L 157.640793 248.765103 
L 158.454463 249.189485 
L 159.268134 251.420975 
L 160.081805 250.852659 
L 160.895475 252.091871 
L 161.709146 249.129653 
L 162.522816 249.576807 
L 163.336487 252.444552 
L 164.150157 251.452973 
L 164.963828 252.321096 
L 165.777498 252.932928 
L 166.591169 249.303335 
L 167.404839 250.7645 
L 168.21851 251.348381 
L 169.03218 250.880448 
L 169.845851 249.557913 
L 170.659522 250.737524 
L 171.473192 251.212328 
L 172.286863 253.906168 
L 173.100533 254.332913 
L 173.914204 251.59064 
L 174.727874 253.915158 
L 175.541545 251.486174 
L 176.355215 250.238264 
L 177.168886 253.96165 
L 177.982556 255.680403 
L 178.796227 254.391164 
L 179.609897 253.583926 
L 180.423568 252.941337 
L 181.237239 257.387718 
L 182.050909 256.375307 
L 182.86458 255.146937 
L 183.67825 256.446773 
L 184.491921 257.224674 
L 185.305591 258.996474 
L 186.119262 255.866537 
L 186.932932 255.267104 
L 187.746603 257.557344 
L 188.560273 255.767736 
L 189.373944 256.700487 
L 190.187614 255.613428 
L 191.001285 255.706727 
L 191.814956 256.517879 
L 192.628626 257.689977 
L 193.442297 256.250341 
L 194.255967 258.636305 
L 195.069638 257.369949 
L 195.883308 258.525787 
L 196.696979 258.556301 
L 197.510649 261.778678 
L 198.32432 255.728588 
L 199.13799 258.946859 
L 199.951661 258.080143 
L 200.765332 259.963638 
L 201.579002 257.547394 
L 203.206343 262.156447 
L 204.020014 259.061387 
L 204.833684 259.782168 
L 205.647355 259.709091 
L 206.461025 260.264761 
L 207.274696 262.025469 
L 208.088366 264.502646 
L 208.902037 260.08281 
L 209.715707 261.837465 
L 211.343049 263.738437 
L 212.156719 261.188734 
L 212.97039 262.902683 
L 213.78406 262.790568 
L 214.597731 262.456444 
L 215.411401 262.694446 
L 216.225072 262.146435 
L 217.038742 264.771216 
L 217.852413 264.253305 
L 218.666083 263.96133 
L 219.479754 265.305165 
L 220.293424 265.515583 
L 221.107095 262.370339 
L 221.920766 265.227834 
L 222.734436 264.016765 
L 223.548107 264.372131 
L 224.361777 265.969255 
L 225.175448 263.121127 
L 225.989118 265.069482 
L 226.802789 265.287695 
L 227.616459 265.628594 
L 228.43013 263.909112 
L 229.2438 264.974932 
L 230.057471 264.283705 
L 230.871141 267.231217 
L 231.684812 266.495496 
L 232.498483 268.267064 
L 233.312153 266.968951 
L 234.939494 264.859985 
L 235.753165 267.443987 
L 236.566835 266.646738 
L 237.380506 271.783822 
L 238.194176 267.046457 
L 239.007847 270.942028 
L 239.821517 270.690341 
L 241.448859 269.160224 
L 242.262529 266.84645 
L 243.0762 270.783818 
L 243.88987 268.861607 
L 244.703541 266.375965 
L 245.517211 270.095791 
L 246.330882 266.945572 
L 247.144552 270.298423 
L 247.958223 271.109676 
L 248.771893 271.037895 
L 249.585564 271.523799 
L 250.399234 269.955888 
L 251.212905 270.801418 
L 252.026576 272.375282 
L 252.840246 273.074686 
L 253.653917 269.264158 
L 254.467587 274.098647 
L 255.281258 272.476956 
L 256.094928 271.54052 
L 256.908599 272.409559 
L 257.722269 274.730108 
L 258.53594 271.810353 
L 259.34961 271.930468 
L 260.163281 274.398028 
L 260.976951 272.746034 
L 261.790622 275.479057 
L 262.604293 275.522044 
L 263.417963 276.165248 
L 264.231634 275.951093 
L 265.045304 274.455129 
L 265.858975 275.085776 
L 266.672645 275.344627 
L 267.486316 273.49926 
L 269.113657 276.278341 
L 269.927327 276.247808 
L 270.740998 274.201898 
L 271.554668 272.820515 
L 272.368339 276.988913 
L 273.18201 276.241822 
L 273.99568 277.097703 
L 274.809351 274.986457 
L 275.623021 274.062573 
L 276.436692 277.663384 
L 277.250362 273.937578 
L 278.064033 274.76783 
L 278.877703 279.089456 
L 279.691374 277.439034 
L 280.505044 277.387916 
L 281.318715 279.814193 
L 282.132386 276.67942 
L 282.946056 277.50544 
L 283.759727 277.864687 
L 284.573397 277.359804 
L 285.387068 277.293364 
L 286.200738 279.640425 
L 287.014409 277.566025 
L 287.828079 278.590911 
L 288.64175 278.279154 
L 289.45542 280.254793 
L 290.269091 277.979487 
L 291.082761 278.655215 
L 291.896432 279.087135 
L 292.710103 280.488972 
L 293.523773 278.539623 
L 294.337444 279.743368 
L 295.151114 278.905297 
L 295.964785 280.004028 
L 296.778455 280.224872 
L 297.592126 282.713196 
L 298.405796 281.114486 
L 299.219467 280.0452 
L 300.033137 283.435103 
L 300.846808 281.41202 
L 301.660478 281.299634 
L 302.474149 279.479145 
L 303.28782 283.73815 
L 304.10149 283.891758 
L 304.915161 282.752155 
L 305.728831 281.202866 
L 306.542502 284.113019 
L 307.356172 281.304721 
L 308.169843 284.707811 
L 308.983513 282.784781 
L 309.797184 282.137597 
L 310.610854 283.848823 
L 311.424525 284.392619 
L 312.238195 282.87075 
L 313.051866 282.280443 
L 313.865537 284.63465 
L 314.679207 284.459371 
L 315.492878 283.491182 
L 316.306548 284.261928 
L 317.120219 284.22768 
L 317.933889 282.551681 
L 318.74756 285.342054 
L 319.56123 285.590256 
L 320.374901 284.227061 
L 321.188571 287.105863 
L 322.002242 286.868531 
L 322.815913 285.846274 
L 323.629583 287.466794 
L 324.443254 287.645881 
L 325.256924 286.009041 
L 326.070595 287.276154 
L 326.884265 286.729612 
L 328.511606 287.382431 
L 329.325277 285.317373 
L 330.138947 285.884342 
L 330.952618 285.372725 
L 331.766288 287.07016 
L 332.579959 287.671656 
L 333.39363 287.769418 
L 334.2073 286.102977 
L 335.020971 288.474805 
L 335.834641 289.952888 
L 336.648312 288.254146 
L 337.461982 285.769016 
L 338.275653 285.73377 
L 339.089323 288.559718 
L 339.902994 285.956176 
L 341.530335 288.193101 
L 342.344005 285.227449 
L 343.157676 286.37414 
L 343.971347 290.374588 
L 344.785017 287.483083 
L 345.598688 286.716592 
L 346.412358 286.49261 
L 347.226029 289.504762 
L 348.039699 288.331432 
L 348.85337 289.924328 
L 349.66704 289.206948 
L 350.480711 290.688899 
L 351.294381 287.565596 
L 352.108052 288.691257 
L 352.921722 290.26704 
L 353.735393 291.090238 
L 354.549064 288.359732 
L 355.362734 290.593192 
L 356.176405 287.51895 
L 356.990075 289.207508 
L 357.803746 290.520042 
L 358.617416 290.280309 
L 359.431087 289.239232 
L 360.244757 291.395833 
L 361.058428 290.7327 
L 361.872098 290.887083 
L 362.685769 289.339608 
L 363.49944 288.45509 
L 364.31311 291.400527 
L 365.126781 289.289401 
L 365.940451 291.429903 
L 366.754122 291.115461 
L 367.567792 289.94931 
L 368.381463 290.485256 
L 369.195133 290.646418 
L 370.008804 291.290255 
L 370.822474 290.045756 
L 371.636145 292.653698 
L 372.449815 291.879835 
L 373.263486 287.634121 
L 374.077157 287.889479 
L 374.890827 290.29669 
L 375.704498 291.311356 
L 376.518168 290.363604 
L 377.331839 293.89255 
L 378.145509 289.588412 
L 379.77285 295.488 
L 380.586521 290.093735 
L 381.400191 290.916085 
L 383.027532 290.307897 
L 383.841203 291.640381 
L 384.654874 290.841956 
L 385.468544 290.338808 
L 386.282215 290.256036 
L 387.095885 292.173667 
L 387.909556 293.667594 
L 388.723226 290.905643 
L 390.350567 292.096895 
L 391.164238 290.871146 
L 391.977908 291.619955 
L 392.791579 290.948716 
L 393.605249 291.02657 
L 394.41892 291.528329 
L 395.232591 291.39567 
L 396.046261 289.97675 
L 396.859932 291.678942 
L 397.673602 290.983918 
L 398.487273 290.84022 
L 398.487273 290.84022 
" clip-path="url(#pefb2970b12)" style="fill: none; stroke: #1f77b4; stroke-width: 1.5; stroke-linecap: square"/>
   </g>
   <g id="line2d_18">
    <path d="M 73.832727 200.744388 
L 74.646398 233.261991 
L 75.460068 248.130906 
L 76.273739 248.573925 
L 77.087409 254.839589 
L 77.90108 256.887203 
L 78.714751 260.636601 
L 79.528421 265.292255 
L 80.342092 266.566066 
L 81.155762 265.694704 
L 81.969433 265.652556 
L 82.783103 266.871137 
L 83.596774 265.717299 
L 84.410444 267.452167 
L 85.224115 264.780186 
L 86.037785 271.885533 
L 86.851456 266.055982 
L 87.665126 268.860523 
L 88.478797 270.557856 
L 89.292468 268.021844 
L 90.106138 267.157539 
L 90.919809 269.994635 
L 91.733479 269.867719 
L 92.54715 274.773887 
L 93.36082 272.169068 
L 94.174491 271.442118 
L 94.988161 274.883118 
L 95.801832 274.895771 
L 96.615502 271.58758 
L 97.429173 268.808385 
L 98.242843 270.709736 
L 99.056514 271.99047 
L 99.870185 276.714417 
L 100.683855 275.390867 
L 101.497526 277.85605 
L 102.311196 274.998516 
L 103.124867 275.782967 
L 103.938537 275.406913 
L 104.752208 275.7498 
L 105.565878 274.110196 
L 106.379549 274.249711 
L 107.193219 267.82885 
L 108.00689 274.606853 
L 108.82056 276.973736 
L 109.634231 274.176567 
L 110.447902 274.547047 
L 111.261572 271.753529 
L 112.075243 272.023909 
L 112.888913 277.196344 
L 113.702584 280.15217 
L 114.516254 271.929488 
L 115.329925 271.085779 
L 116.143595 277.054363 
L 116.957266 278.176708 
L 117.770936 270.671357 
L 118.584607 273.986827 
L 119.398278 275.182354 
L 120.211948 274.449444 
L 121.025619 271.416283 
L 121.839289 276.609287 
L 122.65296 273.148161 
L 123.46663 276.43636 
L 124.280301 276.606625 
L 125.093971 275.916736 
L 125.907642 274.524316 
L 126.721312 279.422588 
L 127.534983 274.215021 
L 128.348653 274.130083 
L 129.162324 273.720118 
L 130.789665 277.250987 
L 131.603336 277.487847 
L 132.417006 272.753122 
L 133.230677 274.305746 
L 134.044347 275.494241 
L 134.858018 272.682885 
L 135.671688 277.082181 
L 136.485359 276.834209 
L 137.299029 279.213523 
L 138.1127 276.879434 
L 138.92637 273.794449 
L 139.740041 277.213525 
L 140.553712 275.629318 
L 141.367382 276.055446 
L 142.181053 272.99735 
L 143.808394 278.58442 
L 144.622064 276.600892 
L 145.435735 279.228228 
L 146.249405 274.563156 
L 147.063076 274.535094 
L 147.876746 276.69144 
L 148.690417 276.741981 
L 149.504087 277.987408 
L 150.317758 278.431367 
L 151.131429 280.927197 
L 151.945099 277.22781 
L 152.75877 276.234518 
L 153.57244 276.18591 
L 154.386111 273.722128 
L 155.199781 275.637859 
L 156.013452 275.611523 
L 156.827122 276.525693 
L 157.640793 276.309138 
L 158.454463 278.185191 
L 159.268134 277.303151 
L 160.081805 275.792367 
L 160.895475 276.116548 
L 161.709146 278.647578 
L 162.522816 275.710974 
L 163.336487 273.514815 
L 164.150157 276.871986 
L 164.963828 276.429729 
L 165.777498 277.984956 
L 166.591169 278.08692 
L 167.404839 277.117262 
L 168.21851 276.6317 
L 169.03218 276.517277 
L 169.845851 274.548833 
L 170.659522 277.275413 
L 171.473192 277.286046 
L 172.286863 278.441542 
L 173.100533 279.878834 
L 173.914204 279.220576 
L 174.727874 276.319321 
L 175.541545 278.378744 
L 176.355215 279.046362 
L 177.168886 277.032931 
L 177.982556 276.574665 
L 178.796227 279.252456 
L 179.609897 279.885868 
L 181.237239 279.386838 
L 182.050909 275.093559 
L 182.86458 281.103429 
L 183.67825 281.548998 
L 185.305591 278.599332 
L 186.119262 277.865863 
L 186.932932 282.092029 
L 187.746603 281.705913 
L 188.560273 278.775535 
L 189.373944 279.892781 
L 190.187614 278.580136 
L 191.001285 280.511411 
L 191.814956 281.018926 
L 192.628626 279.958176 
L 193.442297 282.853056 
L 194.255967 275.265907 
L 195.069638 278.373868 
L 195.883308 278.850539 
L 196.696979 282.136579 
L 197.510649 275.312415 
L 198.32432 282.347473 
L 199.13799 276.576126 
L 199.951661 279.074132 
L 200.765332 279.871871 
L 201.579002 283.291791 
L 202.392673 279.870907 
L 203.206343 282.195988 
L 204.020014 281.47834 
L 205.647355 277.620197 
L 206.461025 281.865665 
L 207.274696 282.79977 
L 208.088366 280.884663 
L 208.902037 280.373748 
L 209.715707 280.632028 
L 210.529378 279.304367 
L 211.343049 281.082689 
L 212.156719 279.894364 
L 212.97039 279.876237 
L 213.78406 282.448057 
L 214.597731 279.80568 
L 215.411401 282.966846 
L 216.225072 279.67608 
L 217.038742 282.881476 
L 217.852413 282.828012 
L 218.666083 281.160933 
L 219.479754 280.635965 
L 220.293424 283.726649 
L 221.107095 283.274618 
L 221.920766 284.919885 
L 222.734436 280.059757 
L 223.548107 281.565863 
L 224.361777 282.533384 
L 225.175448 281.395386 
L 225.989118 282.940371 
L 226.802789 283.917987 
L 227.616459 283.864621 
L 228.43013 280.541149 
L 229.2438 282.749098 
L 230.057471 284.511466 
L 230.871141 283.182542 
L 231.684812 282.30514 
L 232.498483 283.383519 
L 233.312153 281.471659 
L 234.125824 284.749911 
L 234.939494 284.911737 
L 235.753165 284.860387 
L 236.566835 282.645382 
L 237.380506 282.68621 
L 238.194176 284.693621 
L 239.007847 284.28234 
L 239.821517 285.991346 
L 240.635188 287.104022 
L 241.448859 284.241476 
L 242.262529 284.381015 
L 243.0762 284.083292 
L 243.88987 285.572499 
L 244.703541 287.41665 
L 245.517211 281.704155 
L 246.330882 283.200576 
L 247.144552 285.903195 
L 247.958223 286.357827 
L 248.771893 286.653137 
L 250.399234 283.831769 
L 251.212905 287.233885 
L 252.026576 285.127964 
L 252.840246 286.605567 
L 253.653917 283.121401 
L 254.467587 285.81739 
L 255.281258 283.935251 
L 256.094928 285.180529 
L 256.908599 285.500828 
L 257.722269 286.015399 
L 258.53594 286.254413 
L 259.34961 288.46209 
L 260.163281 286.70921 
L 260.976951 286.367043 
L 261.790622 287.938828 
L 262.604293 288.311795 
L 263.417963 286.684611 
L 264.231634 287.626152 
L 265.858975 284.869246 
L 266.672645 287.358794 
L 267.486316 285.365335 
L 268.299986 285.29055 
L 269.113657 286.517706 
L 269.927327 285.919657 
L 270.740998 287.467391 
L 271.554668 287.669218 
L 273.18201 285.952578 
L 273.99568 288.162746 
L 274.809351 288.329558 
L 275.623021 288.864552 
L 276.436692 286.365037 
L 277.250362 287.332798 
L 278.064033 285.722764 
L 278.877703 286.47418 
L 279.691374 286.9923 
L 280.505044 286.546724 
L 281.318715 288.145861 
L 282.132386 287.332714 
L 282.946056 286.135542 
L 283.759727 287.791371 
L 284.573397 287.635938 
L 285.387068 288.591087 
L 286.200738 287.604372 
L 287.014409 286.800091 
L 287.828079 286.774608 
L 288.64175 287.505035 
L 289.45542 287.936977 
L 290.269091 285.994316 
L 291.082761 286.607871 
L 291.896432 287.936784 
L 292.710103 286.894114 
L 293.523773 287.731365 
L 294.337444 286.201481 
L 295.151114 288.354342 
L 295.964785 288.254421 
L 296.778455 287.839357 
L 297.592126 287.873821 
L 298.405796 289.212073 
L 299.219467 287.639791 
L 300.033137 288.513431 
L 300.846808 288.256743 
L 302.474149 288.948221 
L 303.28782 287.024603 
L 304.10149 288.899468 
L 304.915161 287.811666 
L 305.728831 289.744031 
L 306.542502 289.510951 
L 307.356172 288.720656 
L 308.169843 289.132299 
L 308.983513 289.131608 
L 309.797184 288.338223 
L 310.610854 289.428422 
L 311.424525 288.366565 
L 312.238195 288.180337 
L 313.051866 288.140797 
L 313.865537 289.353157 
L 314.679207 288.671525 
L 315.492878 288.609601 
L 316.306548 288.825683 
L 317.933889 288.683774 
L 318.74756 288.132627 
L 319.56123 288.321971 
L 321.188571 289.572491 
L 322.002242 288.391657 
L 323.629583 289.083513 
L 324.443254 288.373058 
L 325.256924 288.378706 
L 326.884265 288.148953 
L 327.697936 288.504076 
L 328.511606 288.042152 
L 329.325277 288.150389 
L 330.138947 288.663235 
L 331.766288 289.205206 
L 332.579959 290.017153 
L 335.834641 289.471344 
L 337.461982 289.574779 
L 338.275653 288.999574 
L 339.089323 289.187299 
L 339.902994 289.922587 
L 340.716664 289.514586 
L 341.530335 289.547626 
L 342.344005 288.822878 
L 343.157676 289.362887 
L 343.971347 289.429324 
L 344.785017 289.200391 
L 346.412358 289.63359 
L 348.039699 289.149927 
L 348.85337 289.177592 
L 349.66704 289.572059 
L 351.294381 289.508343 
L 352.108052 289.184703 
L 352.921722 289.379211 
L 353.735393 289.199574 
L 354.549064 289.419937 
L 355.362734 289.27056 
L 356.176405 289.450564 
L 356.990075 288.96907 
L 357.803746 288.975919 
L 359.431087 289.636461 
L 361.058428 289.456659 
L 361.872098 289.781105 
L 362.685769 289.500403 
L 363.49944 289.675069 
L 365.126781 289.649986 
L 365.940451 289.730927 
L 366.754122 289.687851 
L 367.567792 289.765378 
L 368.381463 289.671348 
L 369.195133 289.825761 
L 370.008804 289.837708 
L 370.822474 289.719907 
L 373.263486 289.879625 
L 374.890827 289.782713 
L 375.704498 289.869923 
L 378.95918 289.676804 
L 380.586521 289.654347 
L 398.487273 289.706218 
L 398.487273 289.706218 
" clip-path="url(#pefb2970b12)" style="fill: none; stroke: #ff7f0e; stroke-width: 1.5; stroke-linecap: square"/>
   </g>
   <g id="patch_3">
    <path d="M 57.6 307.584 
L 57.6 41.472 
" style="fill: none; stroke: #000000; stroke-width: 0.8; stroke-linejoin: miter; stroke-linecap: square"/>
   </g>
   <g id="patch_4">
    <path d="M 414.72 307.584 
L 414.72 41.472 
" style="fill: none; stroke: #000000; stroke-width: 0.8; stroke-linejoin: miter; stroke-linecap: square"/>
   </g>
   <g id="patch_5">
    <path d="M 57.6 307.584 
L 414.72 307.584 
" style="fill: none; stroke: #000000; stroke-width: 0.8; stroke-linejoin: miter; stroke-linecap: square"/>
   </g>
   <g id="patch_6">
    <path d="M 57.6 41.472 
L 414.72 41.472 
" style="fill: none; stroke: #000000; stroke-width: 0.8; stroke-linejoin: miter; stroke-linecap: square"/>
   </g>
   <g id="text_19">
    <!-- Loss per Epoch -->
    <g transform="translate(190.845 35.472) scale(0.12 -0.12)">
     <defs>
      <path id="DejaVuSans-20" transform="scale(0.015625)"/>
      <path id="DejaVuSans-65" d="M 3597 1894 
L 3597 1613 
L 953 1613 
Q 991 1019 1311 708 
Q 1631 397 2203 397 
Q 2534 397 2845 478 
Q 3156 559 3463 722 
L 3463 178 
Q 3153 47 2828 -22 
Q 2503 -91 2169 -91 
Q 1331 -91 842 396 
Q 353 884 353 1716 
Q 353 2575 817 3079 
Q 1281 3584 2069 3584 
Q 2775 3584 3186 3129 
Q 3597 2675 3597 1894 
z
M 3022 2063 
Q 3016 2534 2758 2815 
Q 2500 3097 2075 3097 
Q 1594 3097 1305 2825 
Q 1016 2553 972 2059 
L 3022 2063 
z
" transform="scale(0.015625)"/>
      <path id="DejaVuSans-72" d="M 2631 2963 
Q 2534 3019 2420 3045 
Q 2306 3072 2169 3072 
Q 1681 3072 1420 2755 
Q 1159 2438 1159 1844 
L 1159 0 
L 581 0 
L 581 3500 
L 1159 3500 
L 1159 2956 
Q 1341 3275 1631 3429 
Q 1922 3584 2338 3584 
Q 2397 3584 2469 3576 
Q 2541 3569 2628 3553 
L 2631 2963 
z
" transform="scale(0.015625)"/>
     </defs>
     <use xlink:href="#DejaVuSans-4c"/>
     <use xlink:href="#DejaVuSans-6f" x="53.962891"/>
     <use xlink:href="#DejaVuSans-73" x="115.144531"/>
     <use xlink:href="#DejaVuSans-73" x="167.244141"/>
     <use xlink:href="#DejaVuSans-20" x="219.34375"/>
     <use xlink:href="#DejaVuSans-70" x="251.130859"/>
     <use xlink:href="#DejaVuSans-65" x="314.607422"/>
     <use xlink:href="#DejaVuSans-72" x="376.130859"/>
     <use xlink:href="#DejaVuSans-20" x="417.244141"/>
     <use xlink:href="#DejaVuSans-45" x="449.03125"/>
     <use xlink:href="#DejaVuSans-70" x="512.214844"/>
     <use xlink:href="#DejaVuSans-6f" x="575.691406"/>
     <use xlink:href="#DejaVuSans-63" x="636.873047"/>
     <use xlink:href="#DejaVuSans-68" x="691.853516"/>
    </g>
   </g>
   <g id="legend_1">
    <g id="patch_7">
     <path d="M 301.22625 78.82825 
L 407.72 78.82825 
Q 409.72 78.82825 409.72 76.82825 
L 409.72 48.472 
Q 409.72 46.472 407.72 46.472 
L 301.22625 46.472 
Q 299.22625 46.472 299.22625 48.472 
L 299.22625 76.82825 
Q 299.22625 78.82825 301.22625 78.82825 
z
" style="fill: #ffffff; opacity: 0.8; stroke: #cccccc; stroke-linejoin: miter"/>
    </g>
    <g id="line2d_19">
     <path d="M 303.22625 54.570437 
L 313.22625 54.570437 
L 323.22625 54.570437 
" style="fill: none; stroke: #1f77b4; stroke-width: 1.5; stroke-linecap: square"/>
    </g>
    <g id="text_20">
     <!-- Training Loss -->
     <g transform="translate(331.22625 58.070437) scale(0.1 -0.1)">
      <defs>
       <path id="DejaVuSans-54" d="M -19 4666 
L 3928 4666 
L 3928 4134 
L 2272 4134 
L 2272 0 
L 1638 0 
L 1638 4134 
L -19 4134 
L -19 4666 
z
" transform="scale(0.015625)"/>
       <path id="DejaVuSans-61" d="M 2194 1759 
Q 1497 1759 1228 1600 
Q 959 1441 959 1056 
Q 959 750 1161 570 
Q 1363 391 1709 391 
Q 2188 391 2477 730 
Q 2766 1069 2766 1631 
L 2766 1759 
L 2194 1759 
z
M 3341 1997 
L 3341 0 
L 2766 0 
L 2766 531 
Q 2569 213 2275 61 
Q 1981 -91 1556 -91 
Q 1019 -91 701 211 
Q 384 513 384 1019 
Q 384 1609 779 1909 
Q 1175 2209 1959 2209 
L 2766 2209 
L 2766 2266 
Q 2766 2663 2505 2880 
Q 2244 3097 1772 3097 
Q 1472 3097 1187 3025 
Q 903 2953 641 2809 
L 641 3341 
Q 956 3463 1253 3523 
Q 1550 3584 1831 3584 
Q 2591 3584 2966 3190 
Q 3341 2797 3341 1997 
z
" transform="scale(0.015625)"/>
       <path id="DejaVuSans-69" d="M 603 3500 
L 1178 3500 
L 1178 0 
L 603 0 
L 603 3500 
z
M 603 4863 
L 1178 4863 
L 1178 4134 
L 603 4134 
L 603 4863 
z
" transform="scale(0.015625)"/>
       <path id="DejaVuSans-6e" d="M 3513 2113 
L 3513 0 
L 2938 0 
L 2938 2094 
Q 2938 2591 2744 2837 
Q 2550 3084 2163 3084 
Q 1697 3084 1428 2787 
Q 1159 2491 1159 1978 
L 1159 0 
L 581 0 
L 581 3500 
L 1159 3500 
L 1159 2956 
Q 1366 3272 1645 3428 
Q 1925 3584 2291 3584 
Q 2894 3584 3203 3211 
Q 3513 2838 3513 2113 
z
" transform="scale(0.015625)"/>
       <path id="DejaVuSans-67" d="M 2906 1791 
Q 2906 2416 2648 2759 
Q 2391 3103 1925 3103 
Q 1463 3103 1205 2759 
Q 947 2416 947 1791 
Q 947 1169 1205 825 
Q 1463 481 1925 481 
Q 2391 481 2648 825 
Q 2906 1169 2906 1791 
z
M 3481 434 
Q 3481 -459 3084 -895 
Q 2688 -1331 1869 -1331 
Q 1566 -1331 1297 -1286 
Q 1028 -1241 775 -1147 
L 775 -588 
Q 1028 -725 1275 -790 
Q 1522 -856 1778 -856 
Q 2344 -856 2625 -561 
Q 2906 -266 2906 331 
L 2906 616 
Q 2728 306 2450 153 
Q 2172 0 1784 0 
Q 1141 0 747 490 
Q 353 981 353 1791 
Q 353 2603 747 3093 
Q 1141 3584 1784 3584 
Q 2172 3584 2450 3431 
Q 2728 3278 2906 2969 
L 2906 3500 
L 3481 3500 
L 3481 434 
z
" transform="scale(0.015625)"/>
      </defs>
      <use xlink:href="#DejaVuSans-54"/>
      <use xlink:href="#DejaVuSans-72" x="46.333984"/>
      <use xlink:href="#DejaVuSans-61" x="87.447266"/>
      <use xlink:href="#DejaVuSans-69" x="148.726562"/>
      <use xlink:href="#DejaVuSans-6e" x="176.509766"/>
      <use xlink:href="#DejaVuSans-69" x="239.888672"/>
      <use xlink:href="#DejaVuSans-6e" x="267.671875"/>
      <use xlink:href="#DejaVuSans-67" x="331.050781"/>
      <use xlink:href="#DejaVuSans-20" x="394.527344"/>
      <use xlink:href="#DejaVuSans-4c" x="426.314453"/>
      <use xlink:href="#DejaVuSans-6f" x="480.277344"/>
      <use xlink:href="#DejaVuSans-73" x="541.458984"/>
      <use xlink:href="#DejaVuSans-73" x="593.558594"/>
     </g>
    </g>
    <g id="line2d_20">
     <path d="M 303.22625 69.248562 
L 313.22625 69.248562 
L 323.22625 69.248562 
" style="fill: none; stroke: #ff7f0e; stroke-width: 1.5; stroke-linecap: square"/>
    </g>
    <g id="text_21">
     <!-- Validation Loss -->
     <g transform="translate(331.22625 72.748562) scale(0.1 -0.1)">
      <defs>
       <path id="DejaVuSans-56" d="M 1831 0 
L 50 4666 
L 709 4666 
L 2188 738 
L 3669 4666 
L 4325 4666 
L 2547 0 
L 1831 0 
z
" transform="scale(0.015625)"/>
       <path id="DejaVuSans-6c" d="M 603 4863 
L 1178 4863 
L 1178 0 
L 603 0 
L 603 4863 
z
" transform="scale(0.015625)"/>
       <path id="DejaVuSans-64" d="M 2906 2969 
L 2906 4863 
L 3481 4863 
L 3481 0 
L 2906 0 
L 2906 525 
Q 2725 213 2448 61 
Q 2172 -91 1784 -91 
Q 1150 -91 751 415 
Q 353 922 353 1747 
Q 353 2572 751 3078 
Q 1150 3584 1784 3584 
Q 2172 3584 2448 3432 
Q 2725 3281 2906 2969 
z
M 947 1747 
Q 947 1113 1208 752 
Q 1469 391 1925 391 
Q 2381 391 2643 752 
Q 2906 1113 2906 1747 
Q 2906 2381 2643 2742 
Q 2381 3103 1925 3103 
Q 1469 3103 1208 2742 
Q 947 2381 947 1747 
z
" transform="scale(0.015625)"/>
       <path id="DejaVuSans-74" d="M 1172 4494 
L 1172 3500 
L 2356 3500 
L 2356 3053 
L 1172 3053 
L 1172 1153 
Q 1172 725 1289 603 
Q 1406 481 1766 481 
L 2356 481 
L 2356 0 
L 1766 0 
Q 1100 0 847 248 
Q 594 497 594 1153 
L 594 3053 
L 172 3053 
L 172 3500 
L 594 3500 
L 594 4494 
L 1172 4494 
z
" transform="scale(0.015625)"/>
      </defs>
      <use xlink:href="#DejaVuSans-56"/>
      <use xlink:href="#DejaVuSans-61" x="60.658203"/>
      <use xlink:href="#DejaVuSans-6c" x="121.9375"/>
      <use xlink:href="#DejaVuSans-69" x="149.720703"/>
      <use xlink:href="#DejaVuSans-64" x="177.503906"/>
      <use xlink:href="#DejaVuSans-61" x="240.980469"/>
      <use xlink:href="#DejaVuSans-74" x="302.259766"/>
      <use xlink:href="#DejaVuSans-69" x="341.46875"/>
      <use xlink:href="#DejaVuSans-6f" x="369.251953"/>
      <use xlink:href="#DejaVuSans-6e" x="430.433594"/>
      <use xlink:href="#DejaVuSans-20" x="493.8125"/>
      <use xlink:href="#DejaVuSans-4c" x="525.599609"/>
      <use xlink:href="#DejaVuSans-6f" x="579.5625"/>
      <use xlink:href="#DejaVuSans-73" x="640.744141"/>
      <use xlink:href="#DejaVuSans-73" x="692.84375"/>
     </g>
    </g>
   </g>
  </g>
 </g>
 <defs>
  <clipPath id="pefb2970b12">
   <rect x="57.6" y="41.472" width="357.12" height="266.112"/>
  </clipPath>
 </defs>
</svg>
